<svg xmlns="http://www.w3.org/2000/svg" viewBox="0 0 647.36 350.43"><path d="M148.71,172.42v14.11H134.6a6,6,0,0,1-6-6.05v-9.7a5,5,0,0,0-5-4.37,1.67,1.67,0,0,1-.39,0H108.41V146.26h14.1a6.05,6.05,0,0,1,6,6.05V161a1.16,1.16,0,0,1,0,.32,5,5,0,0,0,4.69,5h9.38a6,6,0,0,1,6.05,6"/><path d="M219.22,95.87V116h-10.1l-10.05,20.15H185a6,6,0,0,1-6-6v-9.41a5,5,0,0,0-5-4.66,1.16,1.16,0,0,1-.32,0H158.8V95.87h14.07a6,6,0,0,1,6,6V111a5.06,5.06,0,0,0,5,5h5l10.1-20.15Z"/><path d="M148.71,232.91v21.43c-57.47-19-60.42-68.1-60.42-77.87h0V166.38h20.15v10.09h0c0,9.77,3.06,41.08,40.34,56.44"/><path d="M219.22,166.38v10.09h0V178c0,27.58-15.92,61.91-60.41,76.45V233.05c37.28-15.11,40.33-45.6,40.33-55.09v-1.49h0v-5.69a5,5,0,0,0-5-4.37,1.71,1.71,0,0,1-.39,0H179v20.15H158.84V151.31a5,5,0,0,0-5.05-5.05h-5.08v-5.72a5,5,0,0,0-5-4.34,1.12,1.12,0,0,1-.32,0h-35L98.35,116H88.26V95.87h20.15L118.5,116h10.06V95.87h14.1a6,6,0,0,1,6.05,6V130.8a1.19,1.19,0,0,1,0,.32,5,5,0,0,0,5,5h5.05v4.69a.51.51,0,0,0,0-.21,3.08,3.08,0,0,1,0,.53v-.32a.88.88,0,0,1,0,.32,5,5,0,0,0,4.65,5h29.6a6,6,0,0,1,6,6v9.06a5,5,0,0,0,4.65,5Z"/><path d="M158.8,140.86v.32a3.08,3.08,0,0,0,0-.53.51.51,0,0,1,0,.21"/><path d="M158.8,140.86v.32a3.08,3.08,0,0,0,0-.53.51.51,0,0,1,0,.21"/><path d="M293.45,116.71H272.7v69a6.23,6.23,0,0,0,6.23,6.23h14.52ZM335,191.92H355.7v-69a6.21,6.21,0,0,0-6.22-6.22h-9.67a5.21,5.21,0,0,1-4.83-5.2,1.23,1.23,0,0,0,0-.33v-9a6.25,6.25,0,0,0-6.23-6.23H293.44V116.7h35.94a1.84,1.84,0,0,0,.4,0,5.16,5.16,0,0,1,5.17,4.51Zm61.57-75.21h57.06V102.18A6.22,6.22,0,0,0,447.36,96H396.52Zm6.24,75.21H453.6V171.16h-52a5.15,5.15,0,0,1-5.09-5.2c0-.4,0-14.71,0-14.71H451V136.61H396.52V116.7H375.78V165a6.22,6.22,0,0,0,6.21,6.23h9.36a5.17,5.17,0,0,1,5.19,4.83v9.66a6.23,6.23,0,0,0,6.23,6.23m89-26.28V116.7H471v48.24a6.21,6.21,0,0,0,6.22,6.22h9a1.39,1.39,0,0,0,.4,0,5.25,5.25,0,0,1,5.17,4.46v10a6.22,6.22,0,0,0,6.22,6.23H538.5V171.16H496.92a5.15,5.15,0,0,1-5.09-5.2,1.16,1.16,0,0,0,0-.32m67.42,5.52V123A6.25,6.25,0,0,0,553,116.7h-9.37a5.15,5.15,0,0,1-5.09-5.2.93.93,0,0,0,0-.33v-9a6.24,6.24,0,0,0-6.22-6.23H491.8V116.7h41.14a1.75,1.75,0,0,0,.4,0,5.23,5.23,0,0,1,5.16,4.47v50Z"/><path d="M284.06,218.71v2.48h-5.15v13.18h2.16l14-13.18h-5.46v-2.48h13.76v2.48h-4.74L285.5,233.44l18.7,20.81h-8.5l-16.79-19.16v16.69h5.15v2.47H267.27v-2.47h5.15V221.19h-5.15v-2.48Z"/><path d="M327.84,218.71v2.48h-5.15v30.59h5.15v2.47H311.05v-2.47h5.15V221.19h-5.15v-2.48Z"/><path d="M336.59,254.25v-2.47h5.15v-27l-5.46-6.08h8.55l21.95,24.88v-22.4h-5.46v-2.48h13.54v2.48h-5.1V255.9L344.68,228v23.74h5.51v2.47Z"/><path d="M401.28,240.86v-2.52h15.87v2.52h-4.33v8.29h3.25c-3.3,3.4-9.12,5.62-15.35,5.62-10.1,0-19.42-6.49-19.42-17.77a18.8,18.8,0,0,1,18.54-18.8,17.67,17.67,0,0,1,9.27,2.52l4-2.52v12.51c-3.35-5-7.21-9.83-13.19-9.83-6.49,0-11.53,5.56-11.53,14.68,0,10.09,6.9,16.43,14.16,16.43a11,11,0,0,0,3.81-.57V240.86Z"/><path d="M462.68,235.5c0,11.34-9.94,18.75-22.56,18.75H425.33v-2.47h5.15V221.19h-5.15v-2.48H439.6C452.94,218.71,462.68,224.89,462.68,235.5ZM437,221.19v30.59h2.11c10.25,0,16.48-6.39,16.48-16.22,0-9.28-6.28-14.37-16.59-14.37Z"/><path d="M490,254.77c-9.64,0-18.6-7.73-18.6-18.29s9-18.28,18.6-18.28,18.54,7.72,18.54,18.28S499.61,254.77,490,254.77Zm0-2.42c5.76,0,11.43-6.54,11.43-15.87s-5.67-15.81-11.43-15.81-11.44,6.49-11.44,15.81S484.26,252.35,490,252.35Z"/><path d="M549.93,221.6l-12.21,34.56L525.25,221.6l-2.37,30.18h5.83v2.47h-13.4v-2.47h4.59l2.62-30.59h-4.68v-2.48h13.39l8.39,24.52,8.66-24.52h12.77v2.48h-4.69L559,251.78h4.64v2.47H546.79v-2.47h5.82Z"/></svg>