<svg data-v-0dd9719b="" version="1.0" xmlns="http://www.w3.org/2000/svg" xmlns:xlink="http://www.w3.org/1999/xlink"
  width="100%" height="100%" viewBox="0 0 215 55" preserveAspectRatio="xMidYMid meet"
  color-interpolation-filters="sRGB" style="margin: auto;">
  <g data-v-0dd9719b="" fill="#333" class="iconlettersvg-g iconlettersvg" transform="translate(0,0)">
    <g>
      <g class="tp-name" transform="matrix(1,0,0,1,0,0)" opacity="1">
        <g transform="scale(1)">
          <g transform="translate(0, 0)">
            <g class="name-imagesvg">
              <g>
                <rect fill="#333" fill-opacity="0" stroke-width="2" x="0" y="0" width="38.45266848221496" height="40"
                  class="image-rect"></rect> <svg x="0" y="0" width="38.45266848221496" height="40"
                  filtersec="colorsb1167464752" class="image-svg-svg primary" style="overflow: visible;"><svg
                    xmlns="http://www.w3.org/2000/svg" viewBox="0 0 162.08 168.6">
                    <path d="M68.46 168.6L16.3 16.3h40.52l32.6 107.59h.47l32.6-107.59h39.59l-52.17 152.3z"
                      fill="#01b7cd" opacity=".3"></path>
                    <path
                      d="M134.26 35.18a1.68 1.68 0 0 0 1.68 1.68 2 2 0 0 0 .35 0l.56-1.64.37-1.07a1.65 1.65 0 0 0-1.28-.6 1.68 1.68 0 0 0-1.68 1.63zM135.94 16.74a1.68 1.68 0 1 0 1.68 1.67 1.68 1.68 0 0 0-1.68-1.67zM127.55 25.12a1.68 1.68 0 1 0 1.68 1.68 1.68 1.68 0 0 0-1.68-1.68zM127.55 8.35a1.68 1.68 0 1 0 1.68 1.65 1.68 1.68 0 0 0-1.68-1.65zM144.32 8.35a1.68 1.68 0 0 0 0 3.36 1.74 1.74 0 0 0 .61-.12l.83-2.41a1.67 1.67 0 0 0-1.44-.83zM119.17 33.51a1.67 1.67 0 0 0-1.67 1.67 1.68 1.68 0 1 0 3.35 0 1.68 1.68 0 0 0-1.68-1.67zM119.17 16.74a1.68 1.68 0 1 0 1.68 1.67 1.67 1.67 0 0 0-1.68-1.67zM135.94 3.32a1.68 1.68 0 0 0 1.53-1h-3.06a1.68 1.68 0 0 0 1.53 1zM125.88 60.33a1.68 1.68 0 0 0 1.67 1.67h.12l1-2.92a1.7 1.7 0 0 0-1.12-.42 1.67 1.67 0 0 0-1.67 1.67zM127.55 41.89a1.68 1.68 0 1 0 1.68 1.68 1.68 1.68 0 0 0-1.68-1.68zM119.17 67a1.68 1.68 0 0 0-1.67 1.68 1.68 1.68 0 0 0 3.35 0 1.68 1.68 0 0 0-1.68-1.68zM119.17 50.27a1.68 1.68 0 1 0 1.68 1.73 1.68 1.68 0 0 0-1.68-1.73zM102.41 33.51a1.68 1.68 0 0 0-1.68 1.67 1.68 1.68 0 1 0 3.35 0 1.67 1.67 0 0 0-1.67-1.67zM103.2 19.88a1.67 1.67 0 0 0 .88-1.47 1.74 1.74 0 0 0-.2-.78zM110.79 25.12a1.68 1.68 0 1 0 1.68 1.68 1.68 1.68 0 0 0-1.68-1.68zM110.79 8.35a1.68 1.68 0 1 0 1.68 1.65 1.68 1.68 0 0 0-1.68-1.65zM119.17 3.32a1.68 1.68 0 0 0 1.53-1h-3.06a1.68 1.68 0 0 0 1.53 1zM102.41 67a1.68 1.68 0 0 0-1.68 1.68 1.68 1.68 0 0 0 3.35 0 1.68 1.68 0 0 0-1.67-1.68zM102.41 50.27a1.68 1.68 0 1 0 1.67 1.73 1.68 1.68 0 0 0-1.67-1.73zM94 58.66a1.68 1.68 0 1 0 1.68 1.67A1.67 1.67 0 0 0 94 58.66zM110.79 58.66a1.68 1.68 0 1 0 1.68 1.67 1.68 1.68 0 0 0-1.68-1.67zM110.79 41.89a1.68 1.68 0 1 0 1.68 1.68 1.68 1.68 0 0 0-1.68-1.68zM102.41 100.57a1.68 1.68 0 0 0-1.68 1.68 1.68 1.68 0 1 0 3.35 0 1.68 1.68 0 0 0-1.67-1.68zM117.5 85.48a1.66 1.66 0 0 0 1.55 1.67l.12-.35.93-2.71a1.62 1.62 0 0 0-.93-.28 1.67 1.67 0 0 0-1.67 1.67zM102.41 83.81a1.68 1.68 0 1 0 1.67 1.67 1.68 1.68 0 0 0-1.67-1.67zM94 92.19a1.68 1.68 0 1 0 1.68 1.68A1.67 1.67 0 0 0 94 92.19zM110.79 92.19a1.68 1.68 0 1 0 1.68 1.68 1.68 1.68 0 0 0-1.68-1.68zM94 75.42a1.68 1.68 0 1 0 1.7 1.68 1.67 1.67 0 0 0-1.7-1.68zM110.79 75.42a1.68 1.68 0 1 0 1.68 1.68 1.68 1.68 0 0 0-1.68-1.68zM85.64 100.57a1.68 1.68 0 0 0-1.64 1.68 1.68 1.68 0 1 0 3.35 0 1.68 1.68 0 0 0-1.71-1.68zM85.64 83.81a1.68 1.68 0 1 0 1.67 1.67 1.68 1.68 0 0 0-1.67-1.67zM100.73 135.79a1.66 1.66 0 0 0 1.13 1.57l.54-1.57.54-1.59a1.9 1.9 0 0 0-.53-.09 1.68 1.68 0 0 0-1.68 1.68zM102.41 117.34a1.68 1.68 0 1 0 1.67 1.68 1.68 1.68 0 0 0-1.67-1.68zM94 125.72a1.68 1.68 0 1 0 1.68 1.68 1.68 1.68 0 0 0-1.68-1.68zM94 109a1.68 1.68 0 1 0 1.68 1.68A1.67 1.67 0 0 0 94 109zM109.11 110.64a1.68 1.68 0 0 0 1.34 1.64l1.07-3.15a1.63 1.63 0 0 0-.73-.17 1.68 1.68 0 0 0-1.68 1.68zM85.64 134.11a1.68 1.68 0 0 0-1.64 1.68 1.68 1.68 0 0 0 3.35 0 1.68 1.68 0 0 0-1.71-1.68zM85.64 117.34a1.68 1.68 0 1 0 1.67 1.66 1.68 1.68 0 0 0-1.67-1.66zM94 142.49a1.68 1.68 0 1 0 1.68 1.68 1.67 1.67 0 0 0-1.68-1.68zM85.64 150.88a1.68 1.68 0 1 0 1.67 1.67 1.68 1.68 0 0 0-1.67-1.67zM60.49 62a1.85 1.85 0 0 0 .42-.06l-1-3.2a1.67 1.67 0 0 0 .58 3.26zM52.11 67a1.68 1.68 0 0 0-1.68 1.68 1.68 1.68 0 0 0 3.35 0A1.68 1.68 0 0 0 52.11 67zM52.11 50.27A1.68 1.68 0 1 0 53.78 52a1.68 1.68 0 0 0-1.67-1.73zM68.87 100.57a1.68 1.68 0 0 0-1.67 1.68 1.68 1.68 0 1 0 3.35 0 1.68 1.68 0 0 0-1.68-1.68zM68.55 87.13l-.86-2.83a1.63 1.63 0 0 0-.49 1.18 1.68 1.68 0 0 0 1.35 1.65zM60.49 92.19a1.68 1.68 0 1 0 1.67 1.68 1.68 1.68 0 0 0-1.67-1.68zM60.49 75.42a1.68 1.68 0 1 0 1.67 1.68 1.68 1.68 0 0 0-1.67-1.68zM52.11 100.57a1.68 1.68 0 0 0-1.68 1.68 1.68 1.68 0 1 0 3.35 0 1.68 1.68 0 0 0-1.67-1.68zM52.11 83.81a1.68 1.68 0 1 0 1.67 1.67 1.68 1.68 0 0 0-1.67-1.67zM68.87 134.11a1.67 1.67 0 0 0-1.67 1.68 1.68 1.68 0 0 0 3.35 0 1.68 1.68 0 0 0-1.68-1.68zM68.87 117.34a1.68 1.68 0 1 0 1.68 1.66 1.67 1.67 0 0 0-1.68-1.66zM60.49 125.72a1.68 1.68 0 1 0 1.67 1.68 1.68 1.68 0 0 0-1.67-1.68zM77.26 125.72a1.68 1.68 0 1 0 1.67 1.68 1.68 1.68 0 0 0-1.67-1.68zM60.49 109a1.68 1.68 0 1 0 1.67 1.68 1.68 1.68 0 0 0-1.67-1.68zM77.26 109a1.66 1.66 0 0 0-1.21.51l-.13.45h-.17a1.56 1.56 0 0 0-.17.72 1.68 1.68 0 1 0 1.68-1.68zM52.11 134.11a1.68 1.68 0 0 0-1.68 1.68 1.68 1.68 0 0 0 3.35 0 1.68 1.68 0 0 0-1.67-1.68zM52.11 117.34a1.68 1.68 0 1 0 1.67 1.66 1.68 1.68 0 0 0-1.67-1.66zM68.87 150.88a1.68 1.68 0 1 0 1.68 1.67 1.67 1.67 0 0 0-1.68-1.67zM60.49 142.49a1.68 1.68 0 1 0 1.67 1.68 1.68 1.68 0 0 0-1.67-1.68zM77.26 142.49a1.68 1.68 0 1 0 1.67 1.68 1.68 1.68 0 0 0-1.67-1.68zM53.78 152.55a1.7 1.7 0 0 0-.34-1zM35.34 33.51a1.68 1.68 0 0 0-1.68 1.67 1.68 1.68 0 1 0 3.36 0 1.68 1.68 0 0 0-1.68-1.67zM35.34 16.74A1.68 1.68 0 1 0 37 18.41a1.68 1.68 0 0 0-1.66-1.67zM27 25.12a1.68 1.68 0 1 0 1.68 1.68A1.68 1.68 0 0 0 27 25.12zM43.72 25.12a1.68 1.68 0 1 0 1.68 1.68 1.68 1.68 0 0 0-1.68-1.68zM27 8.35A1.68 1.68 0 1 0 28.63 10 1.68 1.68 0 0 0 27 8.35zM43.72 11.71a1.66 1.66 0 0 0 1.6-1.21l-.53-1.75a1.68 1.68 0 1 0-1.07 3zM18.57 33.51a1.68 1.68 0 0 0-1.68 1.67 1.68 1.68 0 0 0 3.36 0 1.68 1.68 0 0 0-1.68-1.67zM18.57 16.74a1.68 1.68 0 1 0 1.68 1.67 1.68 1.68 0 0 0-1.68-1.67zM35.34 3.32a1.68 1.68 0 0 0 1.53-1h-3.06a1.68 1.68 0 0 0 1.53 1zM35.34 67a1.68 1.68 0 0 0-1.68 1.68 1.68 1.68 0 0 0 3.36 0A1.68 1.68 0 0 0 35.34 67zM35.34 50.27A1.68 1.68 0 1 0 37 52a1.68 1.68 0 0 0-1.66-1.73zM27 58.66a1.68 1.68 0 1 0 1.68 1.67A1.67 1.67 0 0 0 27 58.66zM43.72 58.66a1.68 1.68 0 1 0 1.68 1.67 1.68 1.68 0 0 0-1.68-1.67zM27 41.89a1.68 1.68 0 1 0 1.68 1.68A1.68 1.68 0 0 0 27 41.89zM43.72 41.89a1.68 1.68 0 1 0 1.68 1.68 1.68 1.68 0 0 0-1.68-1.68zM18.76 50.29l1 2.86a1.67 1.67 0 0 0-1-2.86zM52.11 36.86a1.66 1.66 0 0 0 1.08-.41l-.39-1.27-.5-1.66h-.19a1.68 1.68 0 0 0-1.68 1.67 1.68 1.68 0 0 0 1.68 1.67zM36 100.73l.52 1.52.27.77a1.66 1.66 0 0 0 .2-.77 1.67 1.67 0 0 0-.99-1.52zM35.34 83.81A1.68 1.68 0 1 0 37 85.48a1.68 1.68 0 0 0-1.66-1.67zM43.72 92.19a1.68 1.68 0 1 0 1.68 1.68 1.68 1.68 0 0 0-1.68-1.68zM27.39 75.49l.89 2.62a1.63 1.63 0 0 0 .35-1 1.66 1.66 0 0 0-1.24-1.62zM43.72 75.42a1.68 1.68 0 1 0 1.68 1.68 1.68 1.68 0 0 0-1.68-1.68zM44.7 126.05l.63 1.82a1.84 1.84 0 0 0 .07-.47 1.66 1.66 0 0 0-.7-1.35zM43.72 109a1.68 1.68 0 1 0 1.68 1.68 1.68 1.68 0 0 0-1.68-1.68zM10.19 25.12l1 3a1.67 1.67 0 0 0-1-3zM10.19 8.35A1.68 1.68 0 1 0 11.87 10a1.68 1.68 0 0 0-1.68-1.65zM18.57 3.32a1.68 1.68 0 0 0 1.53-1H17a1.68 1.68 0 0 0 1.57 1zM2.6 3.11a1.63 1.63 0 0 0 .73-.78h-1z"
                      fill="#01b7cd"></path>
                    <path
                      d="M95.94 157H54.49a2.33 2.33 0 0 1-2.2-1.57L.13 3.08A2.32 2.32 0 0 1 2.33 0h40.52a2.34 2.34 0 0 1 2.23 1.65l30.6 101 30.61-101A2.33 2.33 0 0 1 108.52 0h39.59a2.33 2.33 0 0 1 2.2 3.08l-52.16 152.3a2.34 2.34 0 0 1-2.21 1.62zm-39.79-4.7h38.13L144.85 4.66h-34.61l-32.1 105.93a2.32 2.32 0 0 1-2.22 1.65h-.47a2.33 2.33 0 0 1-2.23-1.65L41.12 4.66H5.59z"
                      fill="#01b7cd"></path>
                  </svg></svg> <!---->
              </g>
            </g>
          </g>
          <g transform="translate(38.45266848221496, 0)">
            <g class="name-imagesvg">
              <g>
                <rect fill="#333" fill-opacity="0" stroke-width="2" x="0" y="0" width="35.0591610342299" height="40"
                  class="image-rect"></rect> <svg x="0" y="0" width="35.0591610342299" height="40"
                  filtersec="colorsb4381828756" class="image-svg-svg primary" style="overflow: visible;"><svg
                    xmlns="http://www.w3.org/2000/svg" viewBox="0 0 150.43 171.63">
                    <g fill="#8c73b4">
                      <path
                        d="M112.71 171.63v-43.32H53.09v43.32H16.3v-88.5c0-41.45 23.52-66.83 66.83-66.83 43.55 0 67.3 25.38 67.3 66.83v88.5zm0-88.5c0-20.95-9.08-31.9-29.81-31.9-20.49 0-29.81 11-29.81 31.9v12.58h59.62z"
                        opacity=".3"></path>
                      <path
                        d="M127.28 69.08a1.87 1.87 0 0 0-.34 0 1.66 1.66 0 0 0-1.64 1.34 1.86 1.86 0 0 0 0 .33 1.68 1.68 0 0 0 1.68 1.68 1.87 1.87 0 0 0 .34 0 1.69 1.69 0 0 0 1.34-1.65 1.24 1.24 0 0 0 0-.33 1.68 1.68 0 0 0-1.38-1.37zM127.28 52.32a1.27 1.27 0 0 0-.34 0 1.68 1.68 0 1 0 0 3.36 1.86 1.86 0 0 0 .34 0 1.67 1.67 0 0 0 0-3.28zM127.28 102.62a1.86 1.86 0 0 0-.34 0 1.69 1.69 0 0 0-1.68 1.68 1.58 1.58 0 0 0 .14.65 1.68 1.68 0 0 0 1.54 1 1.86 1.86 0 0 0 .34 0 1.71 1.71 0 0 0 1.21-1 1.75 1.75 0 0 0 .13-.65 1.68 1.68 0 0 0-1.34-1.64zM127.28 85.85a1.87 1.87 0 0 0-.34 0 1.68 1.68 0 1 0 0 3.35 1.87 1.87 0 0 0 .34 0 1.68 1.68 0 0 0 0-3.29zM128.13 136.61a1.64 1.64 0 0 0-.25-.21 1.78 1.78 0 0 0-.6-.25 1.87 1.87 0 0 0-.34 0 2 2 0 0 0-.34 0 1.78 1.78 0 0 0-.6.25 1.64 1.64 0 0 0-.25.21 1.67 1.67 0 0 0-.45.85 1.86 1.86 0 0 0 0 .33 1.68 1.68 0 0 0 1.68 1.68 1.87 1.87 0 0 0 .34 0 1.69 1.69 0 0 0 1.34-1.65 1.24 1.24 0 0 0 0-.33 1.67 1.67 0 0 0-.53-.88zM127.28 119.38a1.87 1.87 0 0 0-.34 0 1.68 1.68 0 0 0 0 3.36 1.86 1.86 0 0 0 .34 0 1.68 1.68 0 0 0 0-3.29zM110.17 35.51a1.66 1.66 0 0 0-1.67 1.68 1.57 1.57 0 0 0 .13.65 1.67 1.67 0 0 0 3.09 0 1.75 1.75 0 0 0 .13-.65 1.61 1.61 0 0 0-.29-.94 1.69 1.69 0 0 0-1.39-.74zM110.17 18.75a1.68 1.68 0 1 0 1.68 1.67 1.67 1.67 0 0 0-1.68-1.67zM101.79 27.13a1.68 1.68 0 1 0 1.68 1.68 1.68 1.68 0 0 0-1.68-1.68zM118.56 27.13a1.68 1.68 0 1 0 1.67 1.68 1.68 1.68 0 0 0-1.67-1.68zM92.75 38.73a1.63 1.63 0 0 0 1.59-.15 1.7 1.7 0 0 0 .61-.74 1.57 1.57 0 0 0 .13-.65 1.68 1.68 0 0 0-.28-.94 1.73 1.73 0 0 0-1.39-.74 1.71 1.71 0 0 0-1.39.74 1.69 1.69 0 0 0-.29.94 1.75 1.75 0 0 0 .13.65 1.68 1.68 0 0 0 .89.89zM92.75 22a1.85 1.85 0 0 0 .66.13 1.58 1.58 0 0 0 .93-.29 1.68 1.68 0 0 0 0-2.78 1.71 1.71 0 0 0-1.59-.15 1.68 1.68 0 0 0 0 3.09zM111.36 136.61a1.64 1.64 0 0 0-.25-.21 1.78 1.78 0 0 0-.6-.25 1.87 1.87 0 0 0-.34 0 1.76 1.76 0 0 0-.33 0 1.69 1.69 0 0 0-.6.25 1.27 1.27 0 0 0-.25.21 1.69 1.69 0 0 0-.46.85 1.84 1.84 0 0 0 0 .33 1.68 1.68 0 1 0 3.35 0 1.84 1.84 0 0 0 0-.33 1.69 1.69 0 0 0-.52-.85zM110.17 119.35a1.68 1.68 0 1 0 1.68 1.68 1.68 1.68 0 0 0-1.68-1.68zM118.56 127.73a1.68 1.68 0 1 0 1.67 1.68 1.68 1.68 0 0 0-1.67-1.68zM118.56 111a1.68 1.68 0 1 0 1.67 1.67 1.68 1.68 0 0 0-1.67-1.67zM118.56 144.5a1.68 1.68 0 1 0 1.67 1.68 1.68 1.68 0 0 0-1.67-1.68zM76.64 22.1A1.68 1.68 0 1 0 75 20.42a1.68 1.68 0 0 0 1.64 1.68zM68.26 30.48a1.68 1.68 0 1 0-1.68-1.67 1.67 1.67 0 0 0 1.68 1.67zM85 30.48a1.68 1.68 0 1 0-1.67-1.67A1.68 1.68 0 0 0 85 30.48zM68.26 13.72A1.68 1.68 0 1 0 66.58 12a1.68 1.68 0 0 0 1.68 1.72zM85 13.72A1.68 1.68 0 1 0 83.35 12 1.68 1.68 0 0 0 85 13.72zM59.87 22.1a1.68 1.68 0 1 0-1.67-1.68 1.68 1.68 0 0 0 1.67 1.68zM43.11 38.87a1.68 1.68 0 0 0 1.54-1 1.57 1.57 0 0 0 .13-.65 1.68 1.68 0 0 0-3.35 0 1.75 1.75 0 0 0 .13.65 1.69 1.69 0 0 0 1.55 1zM43.11 22.1a1.68 1.68 0 1 0-1.68-1.68 1.68 1.68 0 0 0 1.68 1.68zM34.72 27.13a1.68 1.68 0 1 0 1.68 1.68 1.68 1.68 0 0 0-1.68-1.68zM51.49 30.48a1.68 1.68 0 1 0-1.68-1.67 1.68 1.68 0 0 0 1.68 1.67zM51.49 13.72A1.68 1.68 0 1 0 49.81 12a1.68 1.68 0 0 0 1.68 1.72zM26.68 35.55a1.86 1.86 0 0 0-.34 0 1.58 1.58 0 0 0-.65.14 1.66 1.66 0 0 0-1 1.54 1.58 1.58 0 0 0 .14.65 1.65 1.65 0 0 0 .89.89 1.58 1.58 0 0 0 .65.14 1.86 1.86 0 0 0 .34 0 1.67 1.67 0 0 0 1.2-1 1.58 1.58 0 0 0 .14-.65 1.69 1.69 0 0 0-.29-.94 1.71 1.71 0 0 0-1.08-.77zM26.68 18.78a1.87 1.87 0 0 0-.34 0 1.57 1.57 0 0 0-.65.13 1.67 1.67 0 0 0 0 3.09 1.75 1.75 0 0 0 .65.13 1.87 1.87 0 0 0 .34 0 1.68 1.68 0 0 0 0-3.29zM34.72 127.73a1.68 1.68 0 1 0 1.68 1.68 1.68 1.68 0 0 0-1.68-1.68zM34.72 111a1.68 1.68 0 1 0 1.68 1.67 1.67 1.67 0 0 0-1.68-1.67zM27.53 136.61a1.64 1.64 0 0 0-.25-.21 1.78 1.78 0 0 0-.6-.25 1.94 1.94 0 0 0-.68 0 2 2 0 0 0-.6.25 1.64 1.64 0 0 0-.25.21 1.67 1.67 0 0 0-.45.85 1.24 1.24 0 0 0 0 .33 1.69 1.69 0 0 0 1 1.55 1.75 1.75 0 0 0 .65.13 1.87 1.87 0 0 0 .34 0 1.69 1.69 0 0 0 1.31-1.68 1.86 1.86 0 0 0 0-.33 1.67 1.67 0 0 0-.47-.85zM26.68 119.38a1.87 1.87 0 0 0-.34 0 1.75 1.75 0 0 0-.65.13 1.67 1.67 0 0 0 0 3.09 1.58 1.58 0 0 0 .65.14 1.86 1.86 0 0 0 .34 0 1.68 1.68 0 0 0 0-3.29zM34.72 144.5a1.68 1.68 0 1 0 1.68 1.68 1.68 1.68 0 0 0-1.68-1.68zM18 27.13a1.68 1.68 0 1 0 1.67 1.68A1.68 1.68 0 0 0 18 27.13zM9.57 69.05a1.67 1.67 0 0 0-1.64 1.34 1.84 1.84 0 0 0 0 .33 1.68 1.68 0 1 0 3.35 0 1.84 1.84 0 0 0 0-.33 1.68 1.68 0 0 0-1.71-1.34zM9.57 52.28A1.68 1.68 0 1 0 11.25 54a1.68 1.68 0 0 0-1.68-1.72zM18 60.66a1.68 1.68 0 1 0 1.67 1.68A1.68 1.68 0 0 0 18 60.66zM18 43.9a1.68 1.68 0 1 0 1.67 1.67A1.68 1.68 0 0 0 18 43.9zM9.57 102.58a1.66 1.66 0 0 0-1.67 1.68 1.57 1.57 0 0 0 .13.65 1.67 1.67 0 0 0 3.09 0 1.75 1.75 0 0 0 .13-.65 1.69 1.69 0 0 0-1.68-1.68zM9.57 85.82a1.68 1.68 0 1 0 1.68 1.67 1.67 1.67 0 0 0-1.68-1.67zM18 94.2a1.68 1.68 0 1 0 1.67 1.68A1.68 1.68 0 0 0 18 94.2zM18 77.43a1.68 1.68 0 1 0 1.67 1.68A1.68 1.68 0 0 0 18 77.43zM10.76 136.61a1.64 1.64 0 0 0-.25-.21 1.78 1.78 0 0 0-.6-.25 1.87 1.87 0 0 0-.34 0 2 2 0 0 0-.34 0 1.72 1.72 0 0 0-.59.25 1.27 1.27 0 0 0-.25.21 1.69 1.69 0 0 0-.46.85 1.84 1.84 0 0 0 0 .33 1.68 1.68 0 1 0 3.35 0 1.84 1.84 0 0 0 0-.33 1.69 1.69 0 0 0-.52-.85zM9.57 119.35a1.68 1.68 0 1 0 1.68 1.65 1.68 1.68 0 0 0-1.68-1.65zM18 127.73a1.68 1.68 0 1 0 1.67 1.68 1.68 1.68 0 0 0-1.67-1.68zM18 111a1.68 1.68 0 1 0 1.67 1.67A1.68 1.68 0 0 0 18 111zM18 144.5a1.68 1.68 0 1 0 1.67 1.68A1.68 1.68 0 0 0 18 144.5zM110.17 69.05a1.67 1.67 0 0 0-1.64 1.34 1.84 1.84 0 0 0 0 .33 1.68 1.68 0 1 0 3.35 0 1.84 1.84 0 0 0 0-.33 1.68 1.68 0 0 0-1.71-1.34zM110.17 52.28a1.68 1.68 0 1 0 1.68 1.72 1.68 1.68 0 0 0-1.68-1.72zM103.47 62.34a1.68 1.68 0 0 0-2.91-1.14c-2-14.7-9.84-23.28-23.44-25.61a1.65 1.65 0 0 0-.32-.06 49.82 49.82 0 0 0-7.87-.6 47.68 47.68 0 0 0-8.46.71 1.56 1.56 0 0 0-1.76.36c-14.55 3.31-21.92 14.42-21.92 33.16v12.58a2.34 2.34 0 0 0 2.33 2.33h59.62a2.34 2.34 0 0 0 2.33-2.33v-1.12a1.73 1.73 0 0 0 .72.17 1.68 1.68 0 0 0 0-3.36 1.73 1.73 0 0 0-.72.17v-8.44c0-1.89-.09-3.7-.24-5.44a1.66 1.66 0 0 0 1 .3 1.68 1.68 0 0 0 1.64-1.68zm-7.06 17.07h-55V69.16c0-20.17 8.73-29.57 27.48-29.57S96.41 49 96.41 69.16zM118.56 60.66a1.68 1.68 0 1 0 1.67 1.68 1.68 1.68 0 0 0-1.67-1.68zM101.79 43.9a1.68 1.68 0 1 0 1.68 1.67 1.68 1.68 0 0 0-1.68-1.67zM118.56 43.9a1.68 1.68 0 1 0 1.67 1.67 1.68 1.68 0 0 0-1.67-1.67zM110.17 102.58a1.66 1.66 0 0 0-1.67 1.68 1.57 1.57 0 0 0 .13.65 1.67 1.67 0 0 0 3.09 0 1.75 1.75 0 0 0 .13-.65 1.61 1.61 0 0 0-.29-.94 1.69 1.69 0 0 0-1.39-.74zM110.17 85.82a1.68 1.68 0 1 0 1.68 1.67 1.67 1.67 0 0 0-1.68-1.67zM101.79 94.2a1.68 1.68 0 1 0 1.68 1.68 1.68 1.68 0 0 0-1.68-1.68zM118.56 94.2a1.68 1.68 0 1 0 1.67 1.68 1.68 1.68 0 0 0-1.67-1.68zM118.56 77.43a1.68 1.68 0 1 0 1.67 1.68 1.68 1.68 0 0 0-1.67-1.68zM94.34 102.87a1.63 1.63 0 0 0-1.59-.15 1.59 1.59 0 0 0-.73.6 1.69 1.69 0 0 0-.29.94 1.75 1.75 0 0 0 .13.65 1.68 1.68 0 0 0 .89.89 1.63 1.63 0 0 0 1.59-.15 1.7 1.7 0 0 0 .61-.74 1.57 1.57 0 0 0 .13-.65 1.68 1.68 0 0 0-.28-.94 1.64 1.64 0 0 0-.46-.45zM94.34 86.1a1.71 1.71 0 0 0-1.59-.1 1.68 1.68 0 0 0 0 3.09 1.85 1.85 0 0 0 .66.13 1.68 1.68 0 0 0 .93-3.07zM76.64 102.58a1.69 1.69 0 0 0-1.64 1.68 1.58 1.58 0 0 0 .14.65 1.67 1.67 0 0 0 1.54 1 1.7 1.7 0 0 0 1.55-1 1.75 1.75 0 0 0 .13-.65 1.69 1.69 0 0 0-1.68-1.68zM76.64 85.82a1.68 1.68 0 1 0 1.68 1.67 1.68 1.68 0 0 0-1.68-1.67zM68.26 94.2a1.68 1.68 0 1 0 1.67 1.68 1.68 1.68 0 0 0-1.67-1.68zM85 94.2a1.68 1.68 0 1 0 1.68 1.68A1.68 1.68 0 0 0 85 94.2zM59.87 102.58a1.66 1.66 0 0 0-1.67 1.68 1.57 1.57 0 0 0 .13.65 1.67 1.67 0 0 0 3.09 0 1.75 1.75 0 0 0 .13-.65 1.69 1.69 0 0 0-1.68-1.68zM59.87 85.82a1.68 1.68 0 1 0 1.68 1.67 1.67 1.67 0 0 0-1.68-1.67zM34.72 60.66a1.68 1.68 0 1 0 1.68 1.68 1.68 1.68 0 0 0-1.68-1.68zM34.72 43.9a1.68 1.68 0 1 0 1.68 1.67 1.67 1.67 0 0 0-1.68-1.67zM26.68 69.08a1.87 1.87 0 0 0-.34 0 1.75 1.75 0 0 0-.65.13 1.67 1.67 0 0 0-1 1.21 1.24 1.24 0 0 0 0 .33 1.69 1.69 0 0 0 1 1.55 1.75 1.75 0 0 0 .65.13 1.87 1.87 0 0 0 .34 0A1.69 1.69 0 0 0 28 70.72a1.86 1.86 0 0 0 0-.33 1.68 1.68 0 0 0-1.32-1.31zM26.68 52.32a1.27 1.27 0 0 0-.34 0 1.75 1.75 0 0 0-.65.13 1.67 1.67 0 0 0 0 3.09 1.58 1.58 0 0 0 .65.14 1.86 1.86 0 0 0 .34 0 1.67 1.67 0 0 0 0-3.28zM43.11 102.58a1.69 1.69 0 0 0-1.68 1.68 1.75 1.75 0 0 0 .13.65 1.67 1.67 0 0 0 3.09 0 1.57 1.57 0 0 0 .13-.65 1.66 1.66 0 0 0-1.67-1.68zM43.11 85.82a1.68 1.68 0 1 0 1.67 1.67 1.68 1.68 0 0 0-1.67-1.67zM34.72 94.2a1.68 1.68 0 1 0 1.68 1.68 1.68 1.68 0 0 0-1.68-1.68zM51.49 94.2a1.68 1.68 0 1 0 1.68 1.68 1.68 1.68 0 0 0-1.68-1.68zM34.72 77.43a1.68 1.68 0 1 0 1.68 1.68 1.68 1.68 0 0 0-1.68-1.68zM26.68 102.62a1.86 1.86 0 0 0-.34 0 1.58 1.58 0 0 0-.65.14 1.61 1.61 0 0 0-.74.6 1.69 1.69 0 0 0-.29.94 1.58 1.58 0 0 0 .14.65 1.65 1.65 0 0 0 .89.89 1.58 1.58 0 0 0 .65.14 1.86 1.86 0 0 0 .34 0 1.67 1.67 0 0 0 1.2-1 1.58 1.58 0 0 0 .14-.65 1.69 1.69 0 0 0-.29-.94 1.71 1.71 0 0 0-1.05-.77zM26.68 85.85a1.87 1.87 0 0 0-.34 0 1.57 1.57 0 0 0-.65.13 1.67 1.67 0 0 0 0 3.09 1.75 1.75 0 0 0 .65.13 1.87 1.87 0 0 0 .34 0 1.68 1.68 0 0 0 0-3.29z">
                      </path>
                      <path
                        d="M120.8 18.57C108.64 6.25 91.26 0 69.16 0S29.91 6.25 17.84 18.57C6.17 30.48 0 48 0 69.16v88.49A2.33 2.33 0 0 0 2.33 160h36.79a2.33 2.33 0 0 0 2.33-2.33v-41h55v41a2.33 2.33 0 0 0 2.29 2.33h37.72a2.33 2.33 0 0 0 2.33-2.33V69.16c0-21.16-6.22-38.67-17.99-50.59zm7.61 136.75a1.63 1.63 0 0 0 .21-.76 1.68 1.68 0 0 0-1.34-1.64 1.87 1.87 0 0 0-.34 0 1.68 1.68 0 0 0-1.68 1.67 1.62 1.62 0 0 0 .2.76h-13.8a1.61 1.61 0 0 0 .19-.76 1.68 1.68 0 0 0-3.35 0 1.61 1.61 0 0 0 .19.76h-7.62v-7.64a1.59 1.59 0 0 0 .72.17 1.68 1.68 0 1 0 0-3.35 1.73 1.73 0 0 0-.72.17v-13.78a1.73 1.73 0 0 0 .72.17 1.68 1.68 0 0 0 0-3.36 1.73 1.73 0 0 0-.72.17v-13.56-.2a1.65 1.65 0 0 0 .74.18 1.68 1.68 0 1 0-1.66-1.84 2.33 2.33 0 0 0-1.39-.47H86.58a1.68 1.68 0 0 0-3.11 0H69.81a1.68 1.68 0 0 0-3.1 0H53a1.68 1.68 0 0 0-3.1 0H39.12a2.33 2.33 0 0 0-2.33 2.33v41h-9a1.63 1.63 0 0 0 .21-.76 1.68 1.68 0 0 0-1.34-1.64 1.87 1.87 0 0 0-.34 0 1.57 1.57 0 0 0-.65.13 1.68 1.68 0 0 0-1 1.54 1.63 1.63 0 0 0 .21.76H11.06a1.61 1.61 0 0 0 .19-.76 1.68 1.68 0 0 0-3.35 0 1.61 1.61 0 0 0 .19.76H4.66V69.16c0-11.57 1.87-21.75 5.49-30.41a1.67 1.67 0 0 0 1-.91 1.75 1.75 0 0 0 .13-.65 1.55 1.55 0 0 0-.13-.61A51.22 51.22 0 0 1 33.24 12.8a1.66 1.66 0 0 0 1.48.92A1.68 1.68 0 0 0 36.4 12a1.65 1.65 0 0 0-.19-.76 70.23 70.23 0 0 1 23-6.11A1.64 1.64 0 0 0 60.85 5c2.69-.23 5.45-.35 8.31-.35 2.16 0 4.26.08 6.32.2a1.67 1.67 0 0 0 1.16.47 1.7 1.7 0 0 0 1-.31 73 73 0 0 1 23.27 5.61 1.68 1.68 0 1 0 2.56 1.38v-.21a51.39 51.39 0 0 1 23.67 23.7h-.18a1.69 1.69 0 0 0-1.68 1.68 1.58 1.58 0 0 0 .14.65 1.68 1.68 0 0 0 1.54 1 1.86 1.86 0 0 0 .34 0 1.69 1.69 0 0 0 1-.7 72.47 72.47 0 0 1 5.52 23.44 1.66 1.66 0 0 0-.19.77 1.63 1.63 0 0 0 .3.95c.11 1.92.18 3.87.18 5.87v8.77a1.66 1.66 0 0 0-.48 1.18 1.68 1.68 0 0 0 .48 1.18V94.7a1.66 1.66 0 0 0-.48 1.18 1.64 1.64 0 0 0 .48 1.17v14.41a1.68 1.68 0 0 0-.48 1.18 1.66 1.66 0 0 0 .48 1.18v14.41a1.69 1.69 0 0 0 0 2.36V145a1.66 1.66 0 0 0-.48 1.18 1.68 1.68 0 0 0 .48 1.18v8z">
                      </path>
                    </g>
                  </svg></svg> <!---->
              </g>
            </g>
          </g>
          <g transform="translate(73.51182951644486, 0)">
            <g class="name-imagesvg">
              <g>
                <rect fill="#333" fill-opacity="0" stroke-width="2" x="0" y="0" width="34.19217592121725" height="40"
                  class="image-rect"></rect> <svg x="0" y="0" width="34.19217592121725" height="40"
                  filtersec="colorsb3983071399" class="image-svg-svg primary" style="overflow: visible;"><svg
                    xmlns="http://www.w3.org/2000/svg" viewBox="0 0 146.71 171.63">
                    <path
                      d="M109 171.63V80.34c0-18.63-8.85-29.11-27.47-29.11S54 61.71 54 80.34v91.29H16.3V80.34c0-39.35 23.29-64 65.21-64s65.2 24.69 65.2 64v91.29z"
                      fill="#f05a5b" opacity=".3"></path>
                    <rect x="120.65" y="47.7" width="3.35" height="3.35" rx="1.68" fill="#f05a5b"></rect>
                    <path
                      d="M122.33 30.94a1.68 1.68 0 0 0 0 3.35 1.68 1.68 0 0 0 0-3.35zM130.71 76.21a1.68 1.68 0 1 0-1.71-1.68 1.68 1.68 0 0 0 1.71 1.68zM130.71 59.44a1.68 1.68 0 0 0 1.65-1.39l-.09-.88a1.67 1.67 0 1 0-1.56 2.27z"
                      fill="#f05a5b"></path>
                    <rect x="120.65" y="81.24" width="3.35" height="3.35" rx="1.68" fill="#f05a5b"></rect>
                    <path
                      d="M122.33 64.47a1.68 1.68 0 0 0 0 3.35 1.68 1.68 0 0 0 0-3.35zM130.71 106.39a1.68 1.68 0 1 0 1.67 1.68 1.68 1.68 0 0 0-1.67-1.68zM130.71 89.62a1.68 1.68 0 1 0 1.67 1.68 1.68 1.68 0 0 0-1.67-1.68z"
                      fill="#f05a5b"></path>
                    <rect x="120.65" y="114.77" width="3.35" height="3.35" rx="1.68" fill="#f05a5b"></rect>
                    <path
                      d="M122.33 98a1.68 1.68 0 0 0 0 3.35 1.68 1.68 0 0 0 0-3.35zM130.71 139.92a1.68 1.68 0 1 0 1.67 1.68 1.68 1.68 0 0 0-1.67-1.68zM130.71 123.16a1.68 1.68 0 1 0 1.67 1.67 1.68 1.68 0 0 0-1.67-1.67z"
                      fill="#f05a5b"></path>
                    <rect x="120.65" y="148.31" width="3.35" height="3.35" rx="1.68" fill="#f05a5b"></rect>
                    <path
                      d="M122.33 131.54a1.68 1.68 0 0 0 0 3.35 1.68 1.68 0 0 0 0-3.35zM130.71 156.69a1.65 1.65 0 0 0-1.51 1h3a1.66 1.66 0 0 0-1.49-1zM105.56 14.17a1.68 1.68 0 0 0-1.68 1.67 1.68 1.68 0 1 0 3.35 0 1.67 1.67 0 0 0-1.67-1.67zM97.17 9.14a1.68 1.68 0 0 0 1.55-1c-1-.44-2-.85-3.11-1.24a1.62 1.62 0 0 0-.11.58 1.68 1.68 0 0 0 1.67 1.66zM88.79 14.17a1.68 1.68 0 0 0-1.68 1.67 1.68 1.68 0 1 0 3.36 0 1.68 1.68 0 0 0-1.68-1.67zM105.56 47.7a1.68 1.68 0 0 0-1.68 1.68 1.68 1.68 0 1 0 3.35 0 1.68 1.68 0 0 0-1.67-1.68zM105.56 30.94a1.68 1.68 0 1 0 1.67 1.67 1.68 1.68 0 0 0-1.67-1.67zM97.17 39.32A1.68 1.68 0 1 0 98.85 41a1.68 1.68 0 0 0-1.68-1.68zM113.94 39.32a1.68 1.68 0 1 0 1.68 1.68 1.68 1.68 0 0 0-1.68-1.68zM97.17 22.55a1.68 1.68 0 1 0 1.68 1.68 1.68 1.68 0 0 0-1.68-1.68zM113.94 22.55a1.68 1.68 0 1 0 1.68 1.68 1.68 1.68 0 0 0-1.68-1.68zM88.79 30.94a1.68 1.68 0 1 0 1.68 1.67 1.68 1.68 0 0 0-1.68-1.67zM105.56 81.24a1.68 1.68 0 0 0-1.68 1.67 1.68 1.68 0 1 0 3.35 0 1.67 1.67 0 0 0-1.67-1.67zM105.56 64.47a1.68 1.68 0 1 0 1.67 1.68 1.68 1.68 0 0 0-1.67-1.68zM97.17 72.85a1.68 1.68 0 1 0 1.68 1.68 1.68 1.68 0 0 0-1.68-1.68zM113.94 72.85a1.68 1.68 0 1 0 1.68 1.68 1.68 1.68 0 0 0-1.68-1.68zM97.17 56.09a1.68 1.68 0 1 0 1.68 1.67 1.67 1.67 0 0 0-1.68-1.67zM113.94 56.09a1.68 1.68 0 1 0 1.68 1.67 1.68 1.68 0 0 0-1.68-1.67zM105.56 114.77a1.68 1.68 0 0 0-1.68 1.68 1.68 1.68 0 0 0 3.35 0 1.68 1.68 0 0 0-1.67-1.68zM105.56 98a1.68 1.68 0 1 0 1.67 1.67 1.68 1.68 0 0 0-1.67-1.67zM97.17 106.39a1.68 1.68 0 1 0 1.68 1.68 1.68 1.68 0 0 0-1.68-1.68zM113.94 106.39a1.68 1.68 0 1 0 1.68 1.68 1.68 1.68 0 0 0-1.68-1.68zM97.17 89.62a1.68 1.68 0 1 0 1.68 1.68 1.68 1.68 0 0 0-1.68-1.68zM113.94 89.62a1.68 1.68 0 1 0 1.68 1.68 1.68 1.68 0 0 0-1.68-1.68zM105.56 148.31a1.68 1.68 0 0 0-1.68 1.67 1.68 1.68 0 1 0 3.35 0 1.67 1.67 0 0 0-1.67-1.67zM105.56 131.54a1.68 1.68 0 1 0 1.67 1.68 1.68 1.68 0 0 0-1.67-1.68zM97.17 139.92a1.68 1.68 0 1 0 1.68 1.68 1.68 1.68 0 0 0-1.68-1.68zM113.94 139.92a1.68 1.68 0 1 0 1.68 1.68 1.68 1.68 0 0 0-1.68-1.68zM97.17 123.16a1.68 1.68 0 1 0 1.68 1.67 1.67 1.67 0 0 0-1.68-1.67zM113.94 123.16a1.68 1.68 0 1 0 1.68 1.67 1.68 1.68 0 0 0-1.68-1.67zM97.17 156.69a1.66 1.66 0 0 0-1.51 1h3a1.68 1.68 0 0 0-1.49-1zM113.94 156.69a1.66 1.66 0 0 0-1.51 1h3a1.66 1.66 0 0 0-1.49-1zM72 14.17a1.67 1.67 0 0 0-1.67 1.67 1.68 1.68 0 1 0 3.35 0A1.68 1.68 0 0 0 72 14.17zM63.64 5.78a1.68 1.68 0 1 0 1.68 1.68 1.68 1.68 0 0 0-1.68-1.68zM80.41 5.78a1.68 1.68 0 1 0 1.68 1.68 1.68 1.68 0 0 0-1.68-1.68zM55.26 14.17a1.68 1.68 0 0 0-1.68 1.67 1.68 1.68 0 1 0 3.35 0 1.67 1.67 0 0 0-1.67-1.67zM72 30.94a1.68 1.68 0 1 0 1.68 1.67A1.67 1.67 0 0 0 72 30.94zM80.41 39.32a1.87 1.87 0 0 0-.34 0c.6.24 1.19.49 1.76.76a1.69 1.69 0 0 0-1.42-.76zM63.64 22.55a1.68 1.68 0 1 0 1.68 1.68 1.68 1.68 0 0 0-1.68-1.68zM80.41 22.55a1.68 1.68 0 1 0 1.68 1.68 1.68 1.68 0 0 0-1.68-1.68zM55.26 30.94a1.68 1.68 0 1 0 1.67 1.67 1.68 1.68 0 0 0-1.67-1.67zM38.49 14.17a1.68 1.68 0 0 0-1.68 1.67 1.68 1.68 0 1 0 3.36 0 1.68 1.68 0 0 0-1.68-1.67zM46.87 5.78a1.68 1.68 0 1 0 1.68 1.68 1.68 1.68 0 0 0-1.68-1.68zM23.39 15.84c-.57.46-1.12.93-1.67 1.41l-.28.24a1.33 1.33 0 0 0 .28 0 1.68 1.68 0 0 0 1.68-1.68zM38.49 47.7a1.68 1.68 0 0 0-1.68 1.68 1.68 1.68 0 0 0 3.36 0 1.68 1.68 0 0 0-1.68-1.68zM38.49 30.94a1.68 1.68 0 1 0 1.68 1.67 1.68 1.68 0 0 0-1.68-1.67zM30.11 39.32A1.68 1.68 0 1 0 31.78 41a1.68 1.68 0 0 0-1.67-1.68zM46.87 39.32A1.68 1.68 0 1 0 48.55 41a1.68 1.68 0 0 0-1.68-1.68zM30.11 22.55a1.68 1.68 0 1 0 1.67 1.68 1.68 1.68 0 0 0-1.67-1.68zM46.87 22.55a1.68 1.68 0 1 0 1.68 1.68 1.68 1.68 0 0 0-1.68-1.68zM21.72 47.7a1.68 1.68 0 0 0-1.67 1.68 1.68 1.68 0 1 0 3.35 0 1.68 1.68 0 0 0-1.68-1.68zM21.72 30.94a1.68 1.68 0 1 0 1.68 1.67 1.67 1.67 0 0 0-1.68-1.67zM38.49 81.24a1.68 1.68 0 0 0-1.68 1.67 1.67 1.67 0 0 0 3.24.6v-1.19a1.66 1.66 0 0 0-1.56-1.08zM38.49 64.47a1.68 1.68 0 1 0 1.56 2.27v-.37-.74a1.68 1.68 0 0 0-1.56-1.16zM30.11 72.85a1.68 1.68 0 1 0 1.67 1.68 1.68 1.68 0 0 0-1.67-1.68zM30.11 56.09a1.68 1.68 0 1 0 1.67 1.67 1.68 1.68 0 0 0-1.67-1.67zM21.72 81.24a1.67 1.67 0 0 0-1.67 1.67 1.68 1.68 0 1 0 3.35 0 1.68 1.68 0 0 0-1.68-1.67zM21.72 64.47a1.68 1.68 0 1 0 1.68 1.68 1.68 1.68 0 0 0-1.68-1.68zM38.49 114.77a1.68 1.68 0 0 0-1.68 1.68 1.67 1.67 0 0 0 3.24.59v-1.18a1.66 1.66 0 0 0-1.56-1.09zM38.49 98a1.68 1.68 0 1 0 1.56 2.26v-1.17A1.66 1.66 0 0 0 38.49 98zM30.11 106.39a1.68 1.68 0 1 0 1.67 1.68 1.68 1.68 0 0 0-1.67-1.68zM30.11 89.62a1.68 1.68 0 1 0 1.67 1.68 1.68 1.68 0 0 0-1.67-1.68zM21.72 114.77a1.68 1.68 0 0 0-1.67 1.68 1.68 1.68 0 0 0 3.35 0 1.68 1.68 0 0 0-1.68-1.68zM21.72 98a1.68 1.68 0 1 0 1.68 1.67A1.67 1.67 0 0 0 21.72 98zM38.49 148.31a1.68 1.68 0 0 0-1.68 1.69 1.67 1.67 0 0 0 3.24.6v-1.19a1.66 1.66 0 0 0-1.56-1.1zM38.49 131.54a1.68 1.68 0 1 0 1.56 2.27v-1.19a1.66 1.66 0 0 0-1.56-1.08zM30.11 139.92a1.68 1.68 0 1 0 1.67 1.68 1.68 1.68 0 0 0-1.67-1.68zM30.11 123.16a1.68 1.68 0 1 0 1.67 1.67 1.68 1.68 0 0 0-1.67-1.67zM21.72 148.31a1.67 1.67 0 0 0-1.67 1.69 1.68 1.68 0 1 0 3.35 0 1.68 1.68 0 0 0-1.68-1.69zM21.72 131.54a1.68 1.68 0 1 0 1.68 1.68 1.68 1.68 0 0 0-1.68-1.68zM30.11 156.69a1.65 1.65 0 0 0-1.51 1h3a1.66 1.66 0 0 0-1.49-1zM5 47.7a1.67 1.67 0 0 0-.67.14c-.11.51-.23 1-.34 1.54l-.21 1.15a1.7 1.7 0 0 0 1.22.53 1.68 1.68 0 0 0 1.67-1.68A1.68 1.68 0 0 0 5 47.7zM13.34 39.32A1.68 1.68 0 1 0 15 41a1.68 1.68 0 0 0-1.66-1.68zM15 24.39c-.35.46-.7.92-1 1.39a1.65 1.65 0 0 0 1-1.39zM5 81.24a1.68 1.68 0 0 0-1.68 1.67 1.68 1.68 0 1 0 3.35 0A1.67 1.67 0 0 0 5 81.24zM5 64.47a1.68 1.68 0 1 0 1.67 1.68A1.68 1.68 0 0 0 5 64.47zM13.34 72.85A1.68 1.68 0 1 0 15 74.53a1.68 1.68 0 0 0-1.66-1.68zM13.34 56.09A1.68 1.68 0 1 0 15 57.76a1.68 1.68 0 0 0-1.66-1.67zM5 114.77a1.68 1.68 0 0 0-1.68 1.68 1.68 1.68 0 0 0 3.35 0A1.68 1.68 0 0 0 5 114.77zM5 98a1.68 1.68 0 1 0 1.67 1.67A1.68 1.68 0 0 0 5 98zM13.34 106.39a1.68 1.68 0 1 0 1.66 1.68 1.68 1.68 0 0 0-1.66-1.68zM13.34 89.62A1.68 1.68 0 1 0 15 91.3a1.68 1.68 0 0 0-1.66-1.68zM5 148.31A1.68 1.68 0 0 0 3.28 150a1.68 1.68 0 1 0 3.35 0A1.67 1.67 0 0 0 5 148.31zM5 131.54a1.68 1.68 0 1 0 1.67 1.68A1.68 1.68 0 0 0 5 131.54zM13.34 139.92A1.68 1.68 0 1 0 15 141.6a1.68 1.68 0 0 0-1.66-1.68zM13.34 123.16a1.68 1.68 0 1 0 1.66 1.67 1.68 1.68 0 0 0-1.66-1.67zM13.34 156.69a1.66 1.66 0 0 0-1.51 1h3a1.66 1.66 0 0 0-1.49-1z"
                      fill="#f05a5b"></path>
                    <path
                      d="M132.74 160H95a2.33 2.33 0 0 1-2.33-2.33v-91.3c0-18-8.22-26.78-25.15-26.78s-25.14 8.76-25.14 26.78v91.28a2.33 2.33 0 0 1-2.33 2.35H2.33A2.33 2.33 0 0 1 0 157.65V66.37C0 24.81 25.25 0 67.53 0s67.54 24.81 67.54 66.37v91.28a2.33 2.33 0 0 1-2.33 2.35zm-35.4-4.66h33.07V66.37c0-18.9-5.61-34.51-16.21-45.14C103.39 10.39 87.25 4.66 67.53 4.66s-35.85 5.73-46.67 16.57c-10.6 10.63-16.2 26.24-16.2 45.14v88.95h33.07V66.37c0-20.57 10.3-31.44 29.8-31.44S97.34 45.8 97.34 66.37z"
                      fill="#f05a5b"></path>
                  </svg></svg> <!---->
              </g>
            </g>
          </g>
          <g transform="translate(107.70400543766212, 0)">
            <g class="name-imagesvg">
              <g>
                <rect fill="#333" fill-opacity="0" stroke-width="2" x="0" y="0" width="12.811515045654186" height="40"
                  class="image-rect"></rect> <svg x="0" y="0" width="12.811515045654186" height="40"
                  filtersec="colorsb7191359020" class="image-svg-svg primary" style="overflow: visible;"><svg
                    xmlns="http://www.w3.org/2000/svg" viewBox="0 0 54.03 168.6">
                    <g fill="#f05a5b">
                      <path d="M16.3 168.6V16.3H54v152.3z" opacity=".3"></path>
                      <path
                        d="M37.32 6.11a1.68 1.68 0 1 0-1.68-1.68 1.68 1.68 0 0 0 1.68 1.68zM28.94 11.14a1.68 1.68 0 0 0-1.68 1.68 1.68 1.68 0 0 0 3.35 0 1.68 1.68 0 0 0-1.67-1.68zM37.32 36.29A1.68 1.68 0 1 0 39 38a1.68 1.68 0 0 0-1.68-1.71zM37.32 19.52A1.68 1.68 0 1 0 39 21.2a1.68 1.68 0 0 0-1.68-1.68zM28.94 44.68a1.68 1.68 0 0 0-1.68 1.67 1.68 1.68 0 1 0 3.35 0 1.67 1.67 0 0 0-1.67-1.67zM28.94 27.91a1.68 1.68 0 1 0 1.67 1.67 1.68 1.68 0 0 0-1.67-1.67zM37.32 69.83A1.68 1.68 0 1 0 39 71.5a1.68 1.68 0 0 0-1.68-1.67zM37.32 53.06A1.68 1.68 0 1 0 39 54.74a1.68 1.68 0 0 0-1.68-1.68zM28.94 78.21a1.68 1.68 0 0 0-1.68 1.68 1.68 1.68 0 0 0 3.35 0 1.68 1.68 0 0 0-1.67-1.68zM28.94 61.44a1.68 1.68 0 1 0 1.67 1.68 1.68 1.68 0 0 0-1.67-1.68zM37.32 103.36A1.68 1.68 0 1 0 39 105a1.68 1.68 0 0 0-1.68-1.64zM37.32 86.59A1.68 1.68 0 1 0 39 88.27a1.68 1.68 0 0 0-1.68-1.68zM28.94 111.75a1.68 1.68 0 0 0-1.68 1.67 1.68 1.68 0 1 0 3.35 0 1.67 1.67 0 0 0-1.67-1.67zM28.94 95a1.68 1.68 0 1 0 1.67 1.67A1.68 1.68 0 0 0 28.94 95zM37.32 136.9a1.68 1.68 0 1 0 1.68 1.67 1.68 1.68 0 0 0-1.68-1.67zM37.32 120.13a1.68 1.68 0 1 0 1.68 1.68 1.68 1.68 0 0 0-1.68-1.68zM28.94 145.28a1.68 1.68 0 0 0-1.68 1.72 1.68 1.68 0 0 0 3.35 0 1.68 1.68 0 0 0-1.67-1.72zM28.94 128.51a1.68 1.68 0 1 0 1.67 1.68 1.68 1.68 0 0 0-1.67-1.68zM37.32 153.66a1.67 1.67 0 0 0-1.51 1h3a1.67 1.67 0 0 0-1.49-1zM12.17 11.14a1.68 1.68 0 0 0-1.68 1.68 1.68 1.68 0 0 0 3.36 0 1.68 1.68 0 0 0-1.68-1.68zM3.79 2.76a1.68 1.68 0 0 0-1.46.86v1.63a1.67 1.67 0 1 0 1.46-2.49zM20.55 2.76a1.68 1.68 0 1 0 1.68 1.67 1.67 1.67 0 0 0-1.68-1.67zM12.17 44.68a1.68 1.68 0 0 0-1.68 1.67 1.68 1.68 0 0 0 3.36 0 1.68 1.68 0 0 0-1.68-1.67zM12.17 27.91a1.68 1.68 0 1 0 1.68 1.67 1.68 1.68 0 0 0-1.68-1.67zM3.79 36.29a1.67 1.67 0 0 0-1.46.87v1.62a1.67 1.67 0 1 0 1.46-2.49zM20.55 36.29A1.68 1.68 0 1 0 22.23 38a1.68 1.68 0 0 0-1.68-1.71zM3.79 19.52a1.69 1.69 0 0 0-1.46.87V22a1.67 1.67 0 1 0 1.46-2.49zM20.55 19.52a1.68 1.68 0 1 0 1.68 1.68 1.68 1.68 0 0 0-1.68-1.68zM12.17 78.21a1.68 1.68 0 0 0-1.68 1.68 1.68 1.68 0 0 0 3.36 0 1.68 1.68 0 0 0-1.68-1.68zM12.17 61.44a1.68 1.68 0 1 0 1.68 1.68 1.68 1.68 0 0 0-1.68-1.68zM3.79 69.83a1.68 1.68 0 0 0-1.46.86v1.63a1.67 1.67 0 1 0 1.46-2.49zM20.55 69.83a1.68 1.68 0 1 0 1.68 1.67 1.67 1.67 0 0 0-1.68-1.67zM3.79 53.06a1.68 1.68 0 0 0-1.46.86v1.63a1.67 1.67 0 1 0 1.46-2.49zM20.55 53.06a1.68 1.68 0 1 0 1.68 1.68 1.68 1.68 0 0 0-1.68-1.68zM12.17 111.75a1.68 1.68 0 0 0-1.68 1.67 1.68 1.68 0 0 0 3.36 0 1.68 1.68 0 0 0-1.68-1.67zM12.17 95a1.68 1.68 0 1 0 1.68 1.67A1.68 1.68 0 0 0 12.17 95zM3.79 103.36a1.67 1.67 0 0 0-1.46.87v1.62a1.67 1.67 0 1 0 1.46-2.49zM20.55 103.36a1.68 1.68 0 1 0 1.68 1.64 1.68 1.68 0 0 0-1.68-1.64zM3.79 86.59a1.67 1.67 0 0 0-1.46.87v1.62a1.67 1.67 0 1 0 1.46-2.49zM20.55 86.59a1.68 1.68 0 1 0 1.68 1.68 1.68 1.68 0 0 0-1.68-1.68zM12.17 145.28a1.68 1.68 0 0 0-1.68 1.72 1.68 1.68 0 0 0 3.36 0 1.68 1.68 0 0 0-1.68-1.72zM12.17 128.51a1.68 1.68 0 1 0 1.68 1.68 1.68 1.68 0 0 0-1.68-1.68zM3.79 136.9a1.68 1.68 0 0 0-1.46.86v1.62a1.67 1.67 0 1 0 1.46-2.48zM20.55 136.9a1.68 1.68 0 1 0 1.68 1.67 1.67 1.67 0 0 0-1.68-1.67zM3.79 120.13a1.68 1.68 0 0 0-1.46.86v1.63a1.67 1.67 0 1 0 1.46-2.49zM20.55 120.13a1.68 1.68 0 1 0 1.68 1.68 1.68 1.68 0 0 0-1.68-1.68zM3.79 153.66a1.67 1.67 0 0 0-1.46.87v.1h3a1.67 1.67 0 0 0-1.54-.97zM20.55 153.66a1.67 1.67 0 0 0-1.51 1h3a1.69 1.69 0 0 0-1.49-1z">
                      </path>
                      <path
                        d="M40.05 157H2.33A2.32 2.32 0 0 1 0 154.63V2.33A2.33 2.33 0 0 1 2.33 0h37.72a2.33 2.33 0 0 1 2.33 2.33v152.3a2.32 2.32 0 0 1-2.33 2.37zm-35.39-4.7h33.06V4.66H4.66z">
                      </path>
                    </g>
                  </svg></svg> <!---->
              </g>
            </g>
          </g>
          <g transform="translate(120.51552048331631, 0)">
            <g class="name-imagesvg">
              <g>
                <rect fill="#333" fill-opacity="0" stroke-width="2" x="0" y="0" width="29.8933658661082" height="40"
                  class="image-rect"></rect> <svg x="0" y="0" width="29.8933658661082" height="40"
                  filtersec="colorsb3958581644" class="image-svg-svg primary" style="overflow: visible;"><svg
                    xmlns="http://www.w3.org/2000/svg" viewBox="0 0 125.98 168.6">
                    <g fill="#8c73b4">
                      <path d="M16.3 168.6V16.3H54v117.37h72v34.93z" opacity=".3"></path>
                      <path
                        d="M111.85 145.28a1.68 1.68 0 0 0-1.68 1.68 1.68 1.68 0 0 0 1.68 1.67h.15v-3.33h-.16zM111.85 128.51a1.68 1.68 0 1 0 0 3.36h.16v-3.32zM95.08 145.28A1.68 1.68 0 0 0 93.4 147a1.68 1.68 0 0 0 3.36 0 1.68 1.68 0 0 0-1.68-1.72zM95.08 128.51a1.68 1.68 0 1 0 1.68 1.68 1.68 1.68 0 0 0-1.68-1.68zM86.69 136.9a1.68 1.68 0 1 0 1.68 1.67 1.67 1.67 0 0 0-1.68-1.67zM103.46 136.9a1.68 1.68 0 1 0 1.68 1.67 1.68 1.68 0 0 0-1.68-1.67zM86.69 120.13a1.68 1.68 0 1 0 1.68 1.68 1.68 1.68 0 0 0-1.68-1.68zM103.46 120.13a1.68 1.68 0 1 0 1.68 1.68 1.68 1.68 0 0 0-1.68-1.68z">
                      </path>
                      <rect x="76.64" y="145.28" width="3.35" height="3.35" rx="1.68"></rect>
                      <path
                        d="M78.31 128.51a1.68 1.68 0 0 0 0 3.36 1.68 1.68 0 0 0 0-3.36zM86.69 153.66a1.67 1.67 0 0 0-1.51 1h3a1.69 1.69 0 0 0-1.49-1zM103.46 153.66a1.67 1.67 0 0 0-1.51 1h3a1.67 1.67 0 0 0-1.49-1zM61.54 145.28a1.68 1.68 0 0 0-1.67 1.72 1.68 1.68 0 0 0 3.35 0 1.68 1.68 0 0 0-1.68-1.72zM61.54 128.51a1.68 1.68 0 1 0 1.68 1.68 1.68 1.68 0 0 0-1.68-1.68zM53.16 136.9a1.68 1.68 0 1 0 1.68 1.67 1.67 1.67 0 0 0-1.68-1.67zM69.93 136.9a1.68 1.68 0 1 0 1.68 1.67 1.68 1.68 0 0 0-1.68-1.67zM53.16 120.13a1.68 1.68 0 1 0 1.68 1.68 1.67 1.67 0 0 0-1.68-1.68zM69.93 120.13a1.68 1.68 0 1 0 1.68 1.68 1.68 1.68 0 0 0-1.68-1.68zM44.78 145.28A1.68 1.68 0 0 0 43.1 147a1.68 1.68 0 0 0 3.35 0 1.68 1.68 0 0 0-1.67-1.72zM44.78 128.51a1.68 1.68 0 1 0 1.67 1.68 1.68 1.68 0 0 0-1.67-1.68zM53.16 153.66a1.67 1.67 0 0 0-1.51 1h3a1.67 1.67 0 0 0-1.49-1zM69.93 153.66a1.67 1.67 0 0 0-1.51 1h3a1.67 1.67 0 0 0-1.49-1zM28 11.14a1.67 1.67 0 0 0-1.67 1.68 1.68 1.68 0 0 0 3.35 0A1.68 1.68 0 0 0 28 11.14zM19.63 2.76a1.68 1.68 0 1 0 1.67 1.67 1.68 1.68 0 0 0-1.67-1.67zM36.4 2.76a1.68 1.68 0 1 0 1.67 1.67 1.68 1.68 0 0 0-1.67-1.67zM11.25 11.14a1.68 1.68 0 0 0-1.68 1.68 1.68 1.68 0 0 0 3.35 0 1.68 1.68 0 0 0-1.67-1.68zM28 44.68a1.67 1.67 0 0 0-1.67 1.67 1.68 1.68 0 1 0 3.35 0A1.68 1.68 0 0 0 28 44.68zM28 27.91a1.68 1.68 0 1 0 1.68 1.67A1.67 1.67 0 0 0 28 27.91zM19.63 36.29A1.68 1.68 0 1 0 21.3 38a1.68 1.68 0 0 0-1.67-1.71zM36.4 36.29A1.68 1.68 0 1 0 38.07 38a1.68 1.68 0 0 0-1.67-1.71zM19.63 19.52a1.68 1.68 0 1 0 1.67 1.68 1.68 1.68 0 0 0-1.67-1.68zM36.4 19.52a1.68 1.68 0 1 0 1.67 1.68 1.68 1.68 0 0 0-1.67-1.68zM11.25 44.68a1.68 1.68 0 0 0-1.68 1.67 1.68 1.68 0 1 0 3.35 0 1.67 1.67 0 0 0-1.67-1.67zM11.25 27.91a1.68 1.68 0 1 0 1.67 1.67 1.68 1.68 0 0 0-1.67-1.67zM28 78.21a1.67 1.67 0 0 0-1.67 1.68 1.68 1.68 0 0 0 3.35 0A1.68 1.68 0 0 0 28 78.21zM28 61.44a1.68 1.68 0 1 0 1.68 1.68A1.67 1.67 0 0 0 28 61.44zM19.63 69.83a1.68 1.68 0 1 0 1.67 1.67 1.68 1.68 0 0 0-1.67-1.67zM36.4 69.83a1.68 1.68 0 1 0 1.67 1.67 1.68 1.68 0 0 0-1.67-1.67zM19.63 53.06a1.68 1.68 0 1 0 1.67 1.68 1.68 1.68 0 0 0-1.67-1.68zM36.4 53.06a1.68 1.68 0 1 0 1.67 1.68 1.68 1.68 0 0 0-1.67-1.68zM11.25 78.21a1.68 1.68 0 0 0-1.68 1.68 1.68 1.68 0 0 0 3.35 0 1.68 1.68 0 0 0-1.67-1.68zM11.25 61.44a1.68 1.68 0 1 0 1.67 1.68 1.68 1.68 0 0 0-1.67-1.68zM28 111.75a1.67 1.67 0 0 0-1.67 1.67 1.68 1.68 0 1 0 3.35 0 1.68 1.68 0 0 0-1.68-1.67zM28 95a1.68 1.68 0 1 0 1.68 1.67A1.67 1.67 0 0 0 28 95zM19.63 103.36A1.68 1.68 0 1 0 21.3 105a1.68 1.68 0 0 0-1.67-1.64zM36.4 103.36a1.68 1.68 0 1 0 1.67 1.64 1.68 1.68 0 0 0-1.67-1.64zM19.63 86.59a1.68 1.68 0 1 0 1.67 1.68 1.68 1.68 0 0 0-1.67-1.68zM36.4 86.59a1.68 1.68 0 1 0 1.67 1.68 1.68 1.68 0 0 0-1.67-1.68zM11.25 111.75a1.68 1.68 0 0 0-1.68 1.67 1.68 1.68 0 1 0 3.35 0 1.67 1.67 0 0 0-1.67-1.67zM11.25 95a1.68 1.68 0 1 0 1.67 1.67A1.68 1.68 0 0 0 11.25 95zM28 145.28a1.67 1.67 0 0 0-1.66 1.72 1.68 1.68 0 0 0 3.35 0 1.68 1.68 0 0 0-1.69-1.72zM28 128.51a1.68 1.68 0 1 0 1.68 1.68 1.67 1.67 0 0 0-1.68-1.68zM19.63 136.9a1.68 1.68 0 1 0 1.67 1.67 1.68 1.68 0 0 0-1.67-1.67zM36.4 136.9a1.68 1.68 0 1 0 1.67 1.67 1.68 1.68 0 0 0-1.67-1.67zM19.63 120.13a1.68 1.68 0 1 0 1.67 1.68 1.68 1.68 0 0 0-1.67-1.68zM36.4 120.13a1.68 1.68 0 1 0 1.67 1.68 1.68 1.68 0 0 0-1.67-1.68zM11.25 145.28A1.68 1.68 0 0 0 9.57 147a1.68 1.68 0 0 0 3.35 0 1.68 1.68 0 0 0-1.67-1.72zM11.25 128.51a1.68 1.68 0 1 0 1.67 1.68 1.68 1.68 0 0 0-1.67-1.68zM19.63 153.66a1.66 1.66 0 0 0-1.51 1h3a1.67 1.67 0 0 0-1.49-1zM36.4 153.66a1.69 1.69 0 0 0-1.52 1h3a1.68 1.68 0 0 0-1.48-1zM2.86 2.76a1.55 1.55 0 0 0-.53.09V6a1.84 1.84 0 0 0 .53.09 1.68 1.68 0 1 0 0-3.35zM2.86 36.29a1.56 1.56 0 0 0-.53.1v3.16a1.56 1.56 0 0 0 .53.1 1.68 1.68 0 0 0 0-3.36zM2.86 19.52a1.56 1.56 0 0 0-.53.1v3.16a1.56 1.56 0 0 0 .53.1 1.68 1.68 0 1 0 0-3.36zM2.86 69.83a1.55 1.55 0 0 0-.53.09v3.17a1.84 1.84 0 0 0 .53.09 1.68 1.68 0 1 0 0-3.35zM2.86 53.06a1.84 1.84 0 0 0-.53.09v3.17a1.84 1.84 0 0 0 .53.09 1.68 1.68 0 1 0 0-3.35zM2.86 103.36a1.84 1.84 0 0 0-.53.09v3.17a1.55 1.55 0 0 0 .53.09 1.68 1.68 0 1 0 0-3.35zM2.86 86.59a1.56 1.56 0 0 0-.53.1v3.16a1.56 1.56 0 0 0 .53.1 1.68 1.68 0 1 0 0-3.36zM2.86 136.9a1.55 1.55 0 0 0-.53.09v3.16a1.56 1.56 0 0 0 .53.1 1.68 1.68 0 1 0 0-3.35zM2.86 120.13a1.84 1.84 0 0 0-.53.09v3.17a1.84 1.84 0 0 0 .53.09 1.68 1.68 0 1 0 0-3.35zM2.86 153.66a1.56 1.56 0 0 0-.53.1v.87h2a1.67 1.67 0 0 0-1.47-.97z">
                      </path>
                      <path
                        d="M112 157H2.33A2.32 2.32 0 0 1 0 154.63V2.33A2.33 2.33 0 0 1 2.33 0h37.72a2.33 2.33 0 0 1 2.33 2.33v115H112a2.33 2.33 0 0 1 2.33 2.33v34.93A2.32 2.32 0 0 1 112 157zM4.66 152.3h105V122H40.05a2.33 2.33 0 0 1-2.33-2.32V4.66H4.66z">
                      </path>
                    </g>
                  </svg></svg> <!---->
              </g>
            </g>
          </g>
          <g transform="translate(150.4088863494245, 0)">
            <g class="name-imagesvg">
              <g>
                <rect fill="#333" fill-opacity="0" stroke-width="2" x="0" y="0" width="29.8933658661082" height="40"
                  class="image-rect"></rect> <svg x="0" y="0" width="29.8933658661082" height="40"
                  filtersec="colorsb8176865671" class="image-svg-svg primary" style="overflow: visible;"><svg
                    xmlns="http://www.w3.org/2000/svg" viewBox="0 0 125.98 168.6">
                    <g fill="#8c73b4">
                      <path d="M16.3 168.6V16.3H54v117.37h72v34.93z" opacity=".3"></path>
                      <path
                        d="M111.85 145.28a1.68 1.68 0 0 0-1.68 1.68 1.68 1.68 0 0 0 1.68 1.67h.15v-3.33h-.16zM111.85 128.51a1.68 1.68 0 1 0 0 3.36h.16v-3.32zM95.08 145.28A1.68 1.68 0 0 0 93.4 147a1.68 1.68 0 0 0 3.36 0 1.68 1.68 0 0 0-1.68-1.72zM95.08 128.51a1.68 1.68 0 1 0 1.68 1.68 1.68 1.68 0 0 0-1.68-1.68zM86.69 136.9a1.68 1.68 0 1 0 1.68 1.67 1.67 1.67 0 0 0-1.68-1.67zM103.46 136.9a1.68 1.68 0 1 0 1.68 1.67 1.68 1.68 0 0 0-1.68-1.67zM86.69 120.13a1.68 1.68 0 1 0 1.68 1.68 1.68 1.68 0 0 0-1.68-1.68zM103.46 120.13a1.68 1.68 0 1 0 1.68 1.68 1.68 1.68 0 0 0-1.68-1.68z">
                      </path>
                      <rect x="76.64" y="145.28" width="3.35" height="3.35" rx="1.68"></rect>
                      <path
                        d="M78.31 128.51a1.68 1.68 0 0 0 0 3.36 1.68 1.68 0 0 0 0-3.36zM86.69 153.66a1.67 1.67 0 0 0-1.51 1h3a1.69 1.69 0 0 0-1.49-1zM103.46 153.66a1.67 1.67 0 0 0-1.51 1h3a1.67 1.67 0 0 0-1.49-1zM61.54 145.28a1.68 1.68 0 0 0-1.67 1.72 1.68 1.68 0 0 0 3.35 0 1.68 1.68 0 0 0-1.68-1.72zM61.54 128.51a1.68 1.68 0 1 0 1.68 1.68 1.68 1.68 0 0 0-1.68-1.68zM53.16 136.9a1.68 1.68 0 1 0 1.68 1.67 1.67 1.67 0 0 0-1.68-1.67zM69.93 136.9a1.68 1.68 0 1 0 1.68 1.67 1.68 1.68 0 0 0-1.68-1.67zM53.16 120.13a1.68 1.68 0 1 0 1.68 1.68 1.67 1.67 0 0 0-1.68-1.68zM69.93 120.13a1.68 1.68 0 1 0 1.68 1.68 1.68 1.68 0 0 0-1.68-1.68zM44.78 145.28A1.68 1.68 0 0 0 43.1 147a1.68 1.68 0 0 0 3.35 0 1.68 1.68 0 0 0-1.67-1.72zM44.78 128.51a1.68 1.68 0 1 0 1.67 1.68 1.68 1.68 0 0 0-1.67-1.68zM53.16 153.66a1.67 1.67 0 0 0-1.51 1h3a1.67 1.67 0 0 0-1.49-1zM69.93 153.66a1.67 1.67 0 0 0-1.51 1h3a1.67 1.67 0 0 0-1.49-1zM28 11.14a1.67 1.67 0 0 0-1.67 1.68 1.68 1.68 0 0 0 3.35 0A1.68 1.68 0 0 0 28 11.14zM19.63 2.76a1.68 1.68 0 1 0 1.67 1.67 1.68 1.68 0 0 0-1.67-1.67zM36.4 2.76a1.68 1.68 0 1 0 1.67 1.67 1.68 1.68 0 0 0-1.67-1.67zM11.25 11.14a1.68 1.68 0 0 0-1.68 1.68 1.68 1.68 0 0 0 3.35 0 1.68 1.68 0 0 0-1.67-1.68zM28 44.68a1.67 1.67 0 0 0-1.67 1.67 1.68 1.68 0 1 0 3.35 0A1.68 1.68 0 0 0 28 44.68zM28 27.91a1.68 1.68 0 1 0 1.68 1.67A1.67 1.67 0 0 0 28 27.91zM19.63 36.29A1.68 1.68 0 1 0 21.3 38a1.68 1.68 0 0 0-1.67-1.71zM36.4 36.29A1.68 1.68 0 1 0 38.07 38a1.68 1.68 0 0 0-1.67-1.71zM19.63 19.52a1.68 1.68 0 1 0 1.67 1.68 1.68 1.68 0 0 0-1.67-1.68zM36.4 19.52a1.68 1.68 0 1 0 1.67 1.68 1.68 1.68 0 0 0-1.67-1.68zM11.25 44.68a1.68 1.68 0 0 0-1.68 1.67 1.68 1.68 0 1 0 3.35 0 1.67 1.67 0 0 0-1.67-1.67zM11.25 27.91a1.68 1.68 0 1 0 1.67 1.67 1.68 1.68 0 0 0-1.67-1.67zM28 78.21a1.67 1.67 0 0 0-1.67 1.68 1.68 1.68 0 0 0 3.35 0A1.68 1.68 0 0 0 28 78.21zM28 61.44a1.68 1.68 0 1 0 1.68 1.68A1.67 1.67 0 0 0 28 61.44zM19.63 69.83a1.68 1.68 0 1 0 1.67 1.67 1.68 1.68 0 0 0-1.67-1.67zM36.4 69.83a1.68 1.68 0 1 0 1.67 1.67 1.68 1.68 0 0 0-1.67-1.67zM19.63 53.06a1.68 1.68 0 1 0 1.67 1.68 1.68 1.68 0 0 0-1.67-1.68zM36.4 53.06a1.68 1.68 0 1 0 1.67 1.68 1.68 1.68 0 0 0-1.67-1.68zM11.25 78.21a1.68 1.68 0 0 0-1.68 1.68 1.68 1.68 0 0 0 3.35 0 1.68 1.68 0 0 0-1.67-1.68zM11.25 61.44a1.68 1.68 0 1 0 1.67 1.68 1.68 1.68 0 0 0-1.67-1.68zM28 111.75a1.67 1.67 0 0 0-1.67 1.67 1.68 1.68 0 1 0 3.35 0 1.68 1.68 0 0 0-1.68-1.67zM28 95a1.68 1.68 0 1 0 1.68 1.67A1.67 1.67 0 0 0 28 95zM19.63 103.36A1.68 1.68 0 1 0 21.3 105a1.68 1.68 0 0 0-1.67-1.64zM36.4 103.36a1.68 1.68 0 1 0 1.67 1.64 1.68 1.68 0 0 0-1.67-1.64zM19.63 86.59a1.68 1.68 0 1 0 1.67 1.68 1.68 1.68 0 0 0-1.67-1.68zM36.4 86.59a1.68 1.68 0 1 0 1.67 1.68 1.68 1.68 0 0 0-1.67-1.68zM11.25 111.75a1.68 1.68 0 0 0-1.68 1.67 1.68 1.68 0 1 0 3.35 0 1.67 1.67 0 0 0-1.67-1.67zM11.25 95a1.68 1.68 0 1 0 1.67 1.67A1.68 1.68 0 0 0 11.25 95zM28 145.28a1.67 1.67 0 0 0-1.66 1.72 1.68 1.68 0 0 0 3.35 0 1.68 1.68 0 0 0-1.69-1.72zM28 128.51a1.68 1.68 0 1 0 1.68 1.68 1.67 1.67 0 0 0-1.68-1.68zM19.63 136.9a1.68 1.68 0 1 0 1.67 1.67 1.68 1.68 0 0 0-1.67-1.67zM36.4 136.9a1.68 1.68 0 1 0 1.67 1.67 1.68 1.68 0 0 0-1.67-1.67zM19.63 120.13a1.68 1.68 0 1 0 1.67 1.68 1.68 1.68 0 0 0-1.67-1.68zM36.4 120.13a1.68 1.68 0 1 0 1.67 1.68 1.68 1.68 0 0 0-1.67-1.68zM11.25 145.28A1.68 1.68 0 0 0 9.57 147a1.68 1.68 0 0 0 3.35 0 1.68 1.68 0 0 0-1.67-1.72zM11.25 128.51a1.68 1.68 0 1 0 1.67 1.68 1.68 1.68 0 0 0-1.67-1.68zM19.63 153.66a1.66 1.66 0 0 0-1.51 1h3a1.67 1.67 0 0 0-1.49-1zM36.4 153.66a1.69 1.69 0 0 0-1.52 1h3a1.68 1.68 0 0 0-1.48-1zM2.86 2.76a1.55 1.55 0 0 0-.53.09V6a1.84 1.84 0 0 0 .53.09 1.68 1.68 0 1 0 0-3.35zM2.86 36.29a1.56 1.56 0 0 0-.53.1v3.16a1.56 1.56 0 0 0 .53.1 1.68 1.68 0 0 0 0-3.36zM2.86 19.52a1.56 1.56 0 0 0-.53.1v3.16a1.56 1.56 0 0 0 .53.1 1.68 1.68 0 1 0 0-3.36zM2.86 69.83a1.55 1.55 0 0 0-.53.09v3.17a1.84 1.84 0 0 0 .53.09 1.68 1.68 0 1 0 0-3.35zM2.86 53.06a1.84 1.84 0 0 0-.53.09v3.17a1.84 1.84 0 0 0 .53.09 1.68 1.68 0 1 0 0-3.35zM2.86 103.36a1.84 1.84 0 0 0-.53.09v3.17a1.55 1.55 0 0 0 .53.09 1.68 1.68 0 1 0 0-3.35zM2.86 86.59a1.56 1.56 0 0 0-.53.1v3.16a1.56 1.56 0 0 0 .53.1 1.68 1.68 0 1 0 0-3.36zM2.86 136.9a1.55 1.55 0 0 0-.53.09v3.16a1.56 1.56 0 0 0 .53.1 1.68 1.68 0 1 0 0-3.35zM2.86 120.13a1.84 1.84 0 0 0-.53.09v3.17a1.84 1.84 0 0 0 .53.09 1.68 1.68 0 1 0 0-3.35zM2.86 153.66a1.56 1.56 0 0 0-.53.1v.87h2a1.67 1.67 0 0 0-1.47-.97z">
                      </path>
                      <path
                        d="M112 157H2.33A2.32 2.32 0 0 1 0 154.63V2.33A2.33 2.33 0 0 1 2.33 0h37.72a2.33 2.33 0 0 1 2.33 2.33v115H112a2.33 2.33 0 0 1 2.33 2.33v34.93A2.32 2.32 0 0 1 112 157zM4.66 152.3h105V122H40.05a2.33 2.33 0 0 1-2.33-2.32V4.66H4.66z">
                      </path>
                    </g>
                  </svg></svg> <!---->
              </g>
            </g>
          </g>
          <g transform="translate(180.30225221553272, 0)">
            <g class="name-imagesvg">
              <g>
                <rect fill="#333" fill-opacity="0" stroke-width="2" x="0" y="0" width="35.0591610342299" height="40"
                  class="image-rect"></rect> <svg x="0" y="0" width="35.0591610342299" height="40"
                  filtersec="colorsb5021926065" class="image-svg-svg primary" style="overflow: visible;"><svg
                    xmlns="http://www.w3.org/2000/svg" viewBox="0 0 150.43 171.63">
                    <g fill="#8c73b4">
                      <path
                        d="M112.71 171.63v-43.32H53.09v43.32H16.3v-88.5c0-41.45 23.52-66.83 66.83-66.83 43.55 0 67.3 25.38 67.3 66.83v88.5zm0-88.5c0-20.95-9.08-31.9-29.81-31.9-20.49 0-29.81 11-29.81 31.9v12.58h59.62z"
                        opacity=".3"></path>
                      <path
                        d="M127.28 69.08a1.87 1.87 0 0 0-.34 0 1.66 1.66 0 0 0-1.64 1.34 1.86 1.86 0 0 0 0 .33 1.68 1.68 0 0 0 1.68 1.68 1.87 1.87 0 0 0 .34 0 1.69 1.69 0 0 0 1.34-1.65 1.24 1.24 0 0 0 0-.33 1.68 1.68 0 0 0-1.38-1.37zM127.28 52.32a1.27 1.27 0 0 0-.34 0 1.68 1.68 0 1 0 0 3.36 1.86 1.86 0 0 0 .34 0 1.67 1.67 0 0 0 0-3.28zM127.28 102.62a1.86 1.86 0 0 0-.34 0 1.69 1.69 0 0 0-1.68 1.68 1.58 1.58 0 0 0 .14.65 1.68 1.68 0 0 0 1.54 1 1.86 1.86 0 0 0 .34 0 1.71 1.71 0 0 0 1.21-1 1.75 1.75 0 0 0 .13-.65 1.68 1.68 0 0 0-1.34-1.64zM127.28 85.85a1.87 1.87 0 0 0-.34 0 1.68 1.68 0 1 0 0 3.35 1.87 1.87 0 0 0 .34 0 1.68 1.68 0 0 0 0-3.29zM128.13 136.61a1.64 1.64 0 0 0-.25-.21 1.78 1.78 0 0 0-.6-.25 1.87 1.87 0 0 0-.34 0 2 2 0 0 0-.34 0 1.78 1.78 0 0 0-.6.25 1.64 1.64 0 0 0-.25.21 1.67 1.67 0 0 0-.45.85 1.86 1.86 0 0 0 0 .33 1.68 1.68 0 0 0 1.68 1.68 1.87 1.87 0 0 0 .34 0 1.69 1.69 0 0 0 1.34-1.65 1.24 1.24 0 0 0 0-.33 1.67 1.67 0 0 0-.53-.88zM127.28 119.38a1.87 1.87 0 0 0-.34 0 1.68 1.68 0 0 0 0 3.36 1.86 1.86 0 0 0 .34 0 1.68 1.68 0 0 0 0-3.29zM110.17 35.51a1.66 1.66 0 0 0-1.67 1.68 1.57 1.57 0 0 0 .13.65 1.67 1.67 0 0 0 3.09 0 1.75 1.75 0 0 0 .13-.65 1.61 1.61 0 0 0-.29-.94 1.69 1.69 0 0 0-1.39-.74zM110.17 18.75a1.68 1.68 0 1 0 1.68 1.67 1.67 1.67 0 0 0-1.68-1.67zM101.79 27.13a1.68 1.68 0 1 0 1.68 1.68 1.68 1.68 0 0 0-1.68-1.68zM118.56 27.13a1.68 1.68 0 1 0 1.67 1.68 1.68 1.68 0 0 0-1.67-1.68zM92.75 38.73a1.63 1.63 0 0 0 1.59-.15 1.7 1.7 0 0 0 .61-.74 1.57 1.57 0 0 0 .13-.65 1.68 1.68 0 0 0-.28-.94 1.73 1.73 0 0 0-1.39-.74 1.71 1.71 0 0 0-1.39.74 1.69 1.69 0 0 0-.29.94 1.75 1.75 0 0 0 .13.65 1.68 1.68 0 0 0 .89.89zM92.75 22a1.85 1.85 0 0 0 .66.13 1.58 1.58 0 0 0 .93-.29 1.68 1.68 0 0 0 0-2.78 1.71 1.71 0 0 0-1.59-.15 1.68 1.68 0 0 0 0 3.09zM111.36 136.61a1.64 1.64 0 0 0-.25-.21 1.78 1.78 0 0 0-.6-.25 1.87 1.87 0 0 0-.34 0 1.76 1.76 0 0 0-.33 0 1.69 1.69 0 0 0-.6.25 1.27 1.27 0 0 0-.25.21 1.69 1.69 0 0 0-.46.85 1.84 1.84 0 0 0 0 .33 1.68 1.68 0 1 0 3.35 0 1.84 1.84 0 0 0 0-.33 1.69 1.69 0 0 0-.52-.85zM110.17 119.35a1.68 1.68 0 1 0 1.68 1.68 1.68 1.68 0 0 0-1.68-1.68zM118.56 127.73a1.68 1.68 0 1 0 1.67 1.68 1.68 1.68 0 0 0-1.67-1.68zM118.56 111a1.68 1.68 0 1 0 1.67 1.67 1.68 1.68 0 0 0-1.67-1.67zM118.56 144.5a1.68 1.68 0 1 0 1.67 1.68 1.68 1.68 0 0 0-1.67-1.68zM76.64 22.1A1.68 1.68 0 1 0 75 20.42a1.68 1.68 0 0 0 1.64 1.68zM68.26 30.48a1.68 1.68 0 1 0-1.68-1.67 1.67 1.67 0 0 0 1.68 1.67zM85 30.48a1.68 1.68 0 1 0-1.67-1.67A1.68 1.68 0 0 0 85 30.48zM68.26 13.72A1.68 1.68 0 1 0 66.58 12a1.68 1.68 0 0 0 1.68 1.72zM85 13.72A1.68 1.68 0 1 0 83.35 12 1.68 1.68 0 0 0 85 13.72zM59.87 22.1a1.68 1.68 0 1 0-1.67-1.68 1.68 1.68 0 0 0 1.67 1.68zM43.11 38.87a1.68 1.68 0 0 0 1.54-1 1.57 1.57 0 0 0 .13-.65 1.68 1.68 0 0 0-3.35 0 1.75 1.75 0 0 0 .13.65 1.69 1.69 0 0 0 1.55 1zM43.11 22.1a1.68 1.68 0 1 0-1.68-1.68 1.68 1.68 0 0 0 1.68 1.68zM34.72 27.13a1.68 1.68 0 1 0 1.68 1.68 1.68 1.68 0 0 0-1.68-1.68zM51.49 30.48a1.68 1.68 0 1 0-1.68-1.67 1.68 1.68 0 0 0 1.68 1.67zM51.49 13.72A1.68 1.68 0 1 0 49.81 12a1.68 1.68 0 0 0 1.68 1.72zM26.68 35.55a1.86 1.86 0 0 0-.34 0 1.58 1.58 0 0 0-.65.14 1.66 1.66 0 0 0-1 1.54 1.58 1.58 0 0 0 .14.65 1.65 1.65 0 0 0 .89.89 1.58 1.58 0 0 0 .65.14 1.86 1.86 0 0 0 .34 0 1.67 1.67 0 0 0 1.2-1 1.58 1.58 0 0 0 .14-.65 1.69 1.69 0 0 0-.29-.94 1.71 1.71 0 0 0-1.08-.77zM26.68 18.78a1.87 1.87 0 0 0-.34 0 1.57 1.57 0 0 0-.65.13 1.67 1.67 0 0 0 0 3.09 1.75 1.75 0 0 0 .65.13 1.87 1.87 0 0 0 .34 0 1.68 1.68 0 0 0 0-3.29zM34.72 127.73a1.68 1.68 0 1 0 1.68 1.68 1.68 1.68 0 0 0-1.68-1.68zM34.72 111a1.68 1.68 0 1 0 1.68 1.67 1.67 1.67 0 0 0-1.68-1.67zM27.53 136.61a1.64 1.64 0 0 0-.25-.21 1.78 1.78 0 0 0-.6-.25 1.94 1.94 0 0 0-.68 0 2 2 0 0 0-.6.25 1.64 1.64 0 0 0-.25.21 1.67 1.67 0 0 0-.45.85 1.24 1.24 0 0 0 0 .33 1.69 1.69 0 0 0 1 1.55 1.75 1.75 0 0 0 .65.13 1.87 1.87 0 0 0 .34 0 1.69 1.69 0 0 0 1.31-1.68 1.86 1.86 0 0 0 0-.33 1.67 1.67 0 0 0-.47-.85zM26.68 119.38a1.87 1.87 0 0 0-.34 0 1.75 1.75 0 0 0-.65.13 1.67 1.67 0 0 0 0 3.09 1.58 1.58 0 0 0 .65.14 1.86 1.86 0 0 0 .34 0 1.68 1.68 0 0 0 0-3.29zM34.72 144.5a1.68 1.68 0 1 0 1.68 1.68 1.68 1.68 0 0 0-1.68-1.68zM18 27.13a1.68 1.68 0 1 0 1.67 1.68A1.68 1.68 0 0 0 18 27.13zM9.57 69.05a1.67 1.67 0 0 0-1.64 1.34 1.84 1.84 0 0 0 0 .33 1.68 1.68 0 1 0 3.35 0 1.84 1.84 0 0 0 0-.33 1.68 1.68 0 0 0-1.71-1.34zM9.57 52.28A1.68 1.68 0 1 0 11.25 54a1.68 1.68 0 0 0-1.68-1.72zM18 60.66a1.68 1.68 0 1 0 1.67 1.68A1.68 1.68 0 0 0 18 60.66zM18 43.9a1.68 1.68 0 1 0 1.67 1.67A1.68 1.68 0 0 0 18 43.9zM9.57 102.58a1.66 1.66 0 0 0-1.67 1.68 1.57 1.57 0 0 0 .13.65 1.67 1.67 0 0 0 3.09 0 1.75 1.75 0 0 0 .13-.65 1.69 1.69 0 0 0-1.68-1.68zM9.57 85.82a1.68 1.68 0 1 0 1.68 1.67 1.67 1.67 0 0 0-1.68-1.67zM18 94.2a1.68 1.68 0 1 0 1.67 1.68A1.68 1.68 0 0 0 18 94.2zM18 77.43a1.68 1.68 0 1 0 1.67 1.68A1.68 1.68 0 0 0 18 77.43zM10.76 136.61a1.64 1.64 0 0 0-.25-.21 1.78 1.78 0 0 0-.6-.25 1.87 1.87 0 0 0-.34 0 2 2 0 0 0-.34 0 1.72 1.72 0 0 0-.59.25 1.27 1.27 0 0 0-.25.21 1.69 1.69 0 0 0-.46.85 1.84 1.84 0 0 0 0 .33 1.68 1.68 0 1 0 3.35 0 1.84 1.84 0 0 0 0-.33 1.69 1.69 0 0 0-.52-.85zM9.57 119.35a1.68 1.68 0 1 0 1.68 1.65 1.68 1.68 0 0 0-1.68-1.65zM18 127.73a1.68 1.68 0 1 0 1.67 1.68 1.68 1.68 0 0 0-1.67-1.68zM18 111a1.68 1.68 0 1 0 1.67 1.67A1.68 1.68 0 0 0 18 111zM18 144.5a1.68 1.68 0 1 0 1.67 1.68A1.68 1.68 0 0 0 18 144.5zM110.17 69.05a1.67 1.67 0 0 0-1.64 1.34 1.84 1.84 0 0 0 0 .33 1.68 1.68 0 1 0 3.35 0 1.84 1.84 0 0 0 0-.33 1.68 1.68 0 0 0-1.71-1.34zM110.17 52.28a1.68 1.68 0 1 0 1.68 1.72 1.68 1.68 0 0 0-1.68-1.72zM103.47 62.34a1.68 1.68 0 0 0-2.91-1.14c-2-14.7-9.84-23.28-23.44-25.61a1.65 1.65 0 0 0-.32-.06 49.82 49.82 0 0 0-7.87-.6 47.68 47.68 0 0 0-8.46.71 1.56 1.56 0 0 0-1.76.36c-14.55 3.31-21.92 14.42-21.92 33.16v12.58a2.34 2.34 0 0 0 2.33 2.33h59.62a2.34 2.34 0 0 0 2.33-2.33v-1.12a1.73 1.73 0 0 0 .72.17 1.68 1.68 0 0 0 0-3.36 1.73 1.73 0 0 0-.72.17v-8.44c0-1.89-.09-3.7-.24-5.44a1.66 1.66 0 0 0 1 .3 1.68 1.68 0 0 0 1.64-1.68zm-7.06 17.07h-55V69.16c0-20.17 8.73-29.57 27.48-29.57S96.41 49 96.41 69.16zM118.56 60.66a1.68 1.68 0 1 0 1.67 1.68 1.68 1.68 0 0 0-1.67-1.68zM101.79 43.9a1.68 1.68 0 1 0 1.68 1.67 1.68 1.68 0 0 0-1.68-1.67zM118.56 43.9a1.68 1.68 0 1 0 1.67 1.67 1.68 1.68 0 0 0-1.67-1.67zM110.17 102.58a1.66 1.66 0 0 0-1.67 1.68 1.57 1.57 0 0 0 .13.65 1.67 1.67 0 0 0 3.09 0 1.75 1.75 0 0 0 .13-.65 1.61 1.61 0 0 0-.29-.94 1.69 1.69 0 0 0-1.39-.74zM110.17 85.82a1.68 1.68 0 1 0 1.68 1.67 1.67 1.67 0 0 0-1.68-1.67zM101.79 94.2a1.68 1.68 0 1 0 1.68 1.68 1.68 1.68 0 0 0-1.68-1.68zM118.56 94.2a1.68 1.68 0 1 0 1.67 1.68 1.68 1.68 0 0 0-1.67-1.68zM118.56 77.43a1.68 1.68 0 1 0 1.67 1.68 1.68 1.68 0 0 0-1.67-1.68zM94.34 102.87a1.63 1.63 0 0 0-1.59-.15 1.59 1.59 0 0 0-.73.6 1.69 1.69 0 0 0-.29.94 1.75 1.75 0 0 0 .13.65 1.68 1.68 0 0 0 .89.89 1.63 1.63 0 0 0 1.59-.15 1.7 1.7 0 0 0 .61-.74 1.57 1.57 0 0 0 .13-.65 1.68 1.68 0 0 0-.28-.94 1.64 1.64 0 0 0-.46-.45zM94.34 86.1a1.71 1.71 0 0 0-1.59-.1 1.68 1.68 0 0 0 0 3.09 1.85 1.85 0 0 0 .66.13 1.68 1.68 0 0 0 .93-3.07zM76.64 102.58a1.69 1.69 0 0 0-1.64 1.68 1.58 1.58 0 0 0 .14.65 1.67 1.67 0 0 0 1.54 1 1.7 1.7 0 0 0 1.55-1 1.75 1.75 0 0 0 .13-.65 1.69 1.69 0 0 0-1.68-1.68zM76.64 85.82a1.68 1.68 0 1 0 1.68 1.67 1.68 1.68 0 0 0-1.68-1.67zM68.26 94.2a1.68 1.68 0 1 0 1.67 1.68 1.68 1.68 0 0 0-1.67-1.68zM85 94.2a1.68 1.68 0 1 0 1.68 1.68A1.68 1.68 0 0 0 85 94.2zM59.87 102.58a1.66 1.66 0 0 0-1.67 1.68 1.57 1.57 0 0 0 .13.65 1.67 1.67 0 0 0 3.09 0 1.75 1.75 0 0 0 .13-.65 1.69 1.69 0 0 0-1.68-1.68zM59.87 85.82a1.68 1.68 0 1 0 1.68 1.67 1.67 1.67 0 0 0-1.68-1.67zM34.72 60.66a1.68 1.68 0 1 0 1.68 1.68 1.68 1.68 0 0 0-1.68-1.68zM34.72 43.9a1.68 1.68 0 1 0 1.68 1.67 1.67 1.67 0 0 0-1.68-1.67zM26.68 69.08a1.87 1.87 0 0 0-.34 0 1.75 1.75 0 0 0-.65.13 1.67 1.67 0 0 0-1 1.21 1.24 1.24 0 0 0 0 .33 1.69 1.69 0 0 0 1 1.55 1.75 1.75 0 0 0 .65.13 1.87 1.87 0 0 0 .34 0A1.69 1.69 0 0 0 28 70.72a1.86 1.86 0 0 0 0-.33 1.68 1.68 0 0 0-1.32-1.31zM26.68 52.32a1.27 1.27 0 0 0-.34 0 1.75 1.75 0 0 0-.65.13 1.67 1.67 0 0 0 0 3.09 1.58 1.58 0 0 0 .65.14 1.86 1.86 0 0 0 .34 0 1.67 1.67 0 0 0 0-3.28zM43.11 102.58a1.69 1.69 0 0 0-1.68 1.68 1.75 1.75 0 0 0 .13.65 1.67 1.67 0 0 0 3.09 0 1.57 1.57 0 0 0 .13-.65 1.66 1.66 0 0 0-1.67-1.68zM43.11 85.82a1.68 1.68 0 1 0 1.67 1.67 1.68 1.68 0 0 0-1.67-1.67zM34.72 94.2a1.68 1.68 0 1 0 1.68 1.68 1.68 1.68 0 0 0-1.68-1.68zM51.49 94.2a1.68 1.68 0 1 0 1.68 1.68 1.68 1.68 0 0 0-1.68-1.68zM34.72 77.43a1.68 1.68 0 1 0 1.68 1.68 1.68 1.68 0 0 0-1.68-1.68zM26.68 102.62a1.86 1.86 0 0 0-.34 0 1.58 1.58 0 0 0-.65.14 1.61 1.61 0 0 0-.74.6 1.69 1.69 0 0 0-.29.94 1.58 1.58 0 0 0 .14.65 1.65 1.65 0 0 0 .89.89 1.58 1.58 0 0 0 .65.14 1.86 1.86 0 0 0 .34 0 1.67 1.67 0 0 0 1.2-1 1.58 1.58 0 0 0 .14-.65 1.69 1.69 0 0 0-.29-.94 1.71 1.71 0 0 0-1.05-.77zM26.68 85.85a1.87 1.87 0 0 0-.34 0 1.57 1.57 0 0 0-.65.13 1.67 1.67 0 0 0 0 3.09 1.75 1.75 0 0 0 .65.13 1.87 1.87 0 0 0 .34 0 1.68 1.68 0 0 0 0-3.29z">
                      </path>
                      <path
                        d="M120.8 18.57C108.64 6.25 91.26 0 69.16 0S29.91 6.25 17.84 18.57C6.17 30.48 0 48 0 69.16v88.49A2.33 2.33 0 0 0 2.33 160h36.79a2.33 2.33 0 0 0 2.33-2.33v-41h55v41a2.33 2.33 0 0 0 2.29 2.33h37.72a2.33 2.33 0 0 0 2.33-2.33V69.16c0-21.16-6.22-38.67-17.99-50.59zm7.61 136.75a1.63 1.63 0 0 0 .21-.76 1.68 1.68 0 0 0-1.34-1.64 1.87 1.87 0 0 0-.34 0 1.68 1.68 0 0 0-1.68 1.67 1.62 1.62 0 0 0 .2.76h-13.8a1.61 1.61 0 0 0 .19-.76 1.68 1.68 0 0 0-3.35 0 1.61 1.61 0 0 0 .19.76h-7.62v-7.64a1.59 1.59 0 0 0 .72.17 1.68 1.68 0 1 0 0-3.35 1.73 1.73 0 0 0-.72.17v-13.78a1.73 1.73 0 0 0 .72.17 1.68 1.68 0 0 0 0-3.36 1.73 1.73 0 0 0-.72.17v-13.56-.2a1.65 1.65 0 0 0 .74.18 1.68 1.68 0 1 0-1.66-1.84 2.33 2.33 0 0 0-1.39-.47H86.58a1.68 1.68 0 0 0-3.11 0H69.81a1.68 1.68 0 0 0-3.1 0H53a1.68 1.68 0 0 0-3.1 0H39.12a2.33 2.33 0 0 0-2.33 2.33v41h-9a1.63 1.63 0 0 0 .21-.76 1.68 1.68 0 0 0-1.34-1.64 1.87 1.87 0 0 0-.34 0 1.57 1.57 0 0 0-.65.13 1.68 1.68 0 0 0-1 1.54 1.63 1.63 0 0 0 .21.76H11.06a1.61 1.61 0 0 0 .19-.76 1.68 1.68 0 0 0-3.35 0 1.61 1.61 0 0 0 .19.76H4.66V69.16c0-11.57 1.87-21.75 5.49-30.41a1.67 1.67 0 0 0 1-.91 1.75 1.75 0 0 0 .13-.65 1.55 1.55 0 0 0-.13-.61A51.22 51.22 0 0 1 33.24 12.8a1.66 1.66 0 0 0 1.48.92A1.68 1.68 0 0 0 36.4 12a1.65 1.65 0 0 0-.19-.76 70.23 70.23 0 0 1 23-6.11A1.64 1.64 0 0 0 60.85 5c2.69-.23 5.45-.35 8.31-.35 2.16 0 4.26.08 6.32.2a1.67 1.67 0 0 0 1.16.47 1.7 1.7 0 0 0 1-.31 73 73 0 0 1 23.27 5.61 1.68 1.68 0 1 0 2.56 1.38v-.21a51.39 51.39 0 0 1 23.67 23.7h-.18a1.69 1.69 0 0 0-1.68 1.68 1.58 1.58 0 0 0 .14.65 1.68 1.68 0 0 0 1.54 1 1.86 1.86 0 0 0 .34 0 1.69 1.69 0 0 0 1-.7 72.47 72.47 0 0 1 5.52 23.44 1.66 1.66 0 0 0-.19.77 1.63 1.63 0 0 0 .3.95c.11 1.92.18 3.87.18 5.87v8.77a1.66 1.66 0 0 0-.48 1.18 1.68 1.68 0 0 0 .48 1.18V94.7a1.66 1.66 0 0 0-.48 1.18 1.64 1.64 0 0 0 .48 1.17v14.41a1.68 1.68 0 0 0-.48 1.18 1.66 1.66 0 0 0 .48 1.18v14.41a1.69 1.69 0 0 0 0 2.36V145a1.66 1.66 0 0 0-.48 1.18 1.68 1.68 0 0 0 .48 1.18v8z">
                      </path>
                    </g>
                  </svg></svg> <!---->
              </g>
            </g>
          </g>
        </g>
      </g>
    </g>
    <g data-gra="path-slogan" fill-rule="" class="tp-slogan" fill="#01b7cd"
      transform="matrix(1,0,0,1,97.71070194244385,46.000221252441406)" opacity="1"><!----> <!---->
      <g transform="scale(1, 1)">
        <g transform="scale(1)">
          <path
            d="M1.08-7.87L1.08 0L3.10 0C3.69 0 4.21-0.09 4.67-0.27C5.12-0.45 5.51-0.71 5.82-1.05C6.13-1.39 6.37-1.81 6.53-2.30C6.69-2.79 6.77-3.35 6.77-3.97C6.77-5.23 6.45-6.19 5.82-6.86C5.19-7.54 4.26-7.87 3.05-7.87ZM2.98-0.82L2.08-0.82L2.08-7.06L2.98-7.06C3.90-7.06 4.59-6.79 5.05-6.26C5.51-5.74 5.74-4.97 5.74-3.97C5.74-2.97 5.51-2.20 5.05-1.64C4.59-1.09 3.90-0.82 2.98-0.82ZM11.69-3.20L9.32-3.20L9.70-4.40C9.84-4.84 9.98-5.28 10.10-5.72C10.23-6.15 10.36-6.60 10.48-7.06L10.52-7.06C10.65-6.60 10.78-6.15 10.91-5.72C11.04-5.28 11.17-4.84 11.32-4.40ZM11.94-2.40L12.68 0L13.75 0L11.09-7.87L9.96-7.87L7.30 0L8.32 0L9.07-2.40ZM17.65 0.14C18.15 0.14 18.60 0.05 19.01-0.14C19.43-0.34 19.78-0.61 20.08-0.97C20.38-1.32 20.61-1.75 20.78-2.26C20.94-2.77 21.02-3.34 21.02-3.97C21.02-4.60 20.94-5.16 20.78-5.66C20.61-6.16 20.38-6.58 20.08-6.93C19.78-7.28 19.43-7.55 19.01-7.73C18.60-7.92 18.15-8.02 17.65-8.02C17.16-8.02 16.70-7.92 16.29-7.74C15.88-7.56 15.52-7.29 15.23-6.94C14.93-6.59 14.70-6.17 14.54-5.67C14.37-5.17 14.29-4.60 14.29-3.97C14.29-3.34 14.37-2.77 14.54-2.26C14.70-1.75 14.93-1.32 15.23-0.97C15.52-0.61 15.88-0.34 16.29-0.14C16.70 0.05 17.16 0.14 17.65 0.14ZM17.65-0.73C17.30-0.73 16.98-0.81 16.70-0.96C16.41-1.11 16.17-1.33 15.97-1.61C15.76-1.90 15.60-2.24 15.49-2.63C15.38-3.03 15.32-3.48 15.32-3.97C15.32-4.46 15.38-4.90 15.49-5.29C15.60-5.68 15.76-6.02 15.97-6.29C16.17-6.56 16.41-6.77 16.70-6.92C16.98-7.07 17.30-7.14 17.65-7.14C18.00-7.14 18.32-7.07 18.61-6.92C18.89-6.77 19.13-6.56 19.34-6.29C19.54-6.02 19.70-5.68 19.81-5.29C19.92-4.90 19.98-4.46 19.98-3.97C19.98-3.48 19.92-3.03 19.81-2.63C19.70-2.24 19.54-1.90 19.34-1.61C19.13-1.33 18.89-1.11 18.61-0.96C18.32-0.81 18.00-0.73 17.65-0.73Z"
            transform="translate(-1.08, 8.016)"></path>
        </g>
      </g>
    </g>
  </g>
  <defs v-gra="od"></defs>
</svg>